<?xml version="1.0" standalone="no"?>
<!DOCTYPE svg PUBLIC "-//W3C//DTD SVG 20010904//EN"
 "http://www.w3.org/TR/2001/REC-SVG-20010904/DTD/svg10.dtd">
<svg version="1.0" xmlns="http://www.w3.org/2000/svg"
 width="623.000000pt" height="623.000000pt" viewBox="0 0 623.000000 623.000000"
 preserveAspectRatio="xMidYMid meet">
<metadata>
Created by potrace 1.11, written by Peter Selinger 2001-2013
</metadata>
<g transform="translate(0.000000,623.000000) scale(0.100000,-0.100000)"
fill="#000000" stroke="none">
<path d="M3675 6220 c4 -6 -28 -10 -87 -11 -51 0 -111 -4 -133 -8 l-40 -7 50
-7 c28 -4 71 -8 97 -9 87 -3 74 -18 -17 -19 -49 -1 -117 -4 -150 -8 l-60 -7
80 -8 c44 -4 109 -11 145 -16 l65 -7 -100 -3 c-55 -1 -127 -5 -160 -9 l-60 -7
45 -8 c25 -4 86 -11 135 -15 81 -7 84 -8 30 -10 -122 -3 -254 -14 -250 -21 3
-5 58 -12 122 -16 l118 -8 -163 -12 c-90 -6 -165 -14 -168 -17 -3 -2 52 -8
121 -12 70 -4 125 -8 123 -10 -2 -2 -52 -6 -113 -9 -60 -3 -132 -9 -160 -13
l-50 -7 50 -7 c28 -4 88 -8 135 -10 84 -2 84 -2 30 -9 -30 -5 -100 -9 -155
-10 -149 -2 -162 -16 -25 -26 l115 -8 -65 -8 c-36 -4 -105 -11 -155 -15 -88
-7 -89 -7 -40 -14 28 -4 84 -8 125 -8 102 -2 72 -20 -35 -22 -44 0 -102 -4
-130 -8 l-50 -7 70 -8 c78 -8 119 -15 114 -20 -2 -2 -53 -6 -113 -9 -59 -3
-110 -8 -113 -11 -5 -5 8 -7 127 -24 l65 -9 -61 -2 c-34 0 -90 -4 -125 -8 -49
-5 -58 -8 -39 -14 14 -4 45 -8 70 -8 90 -2 75 -19 -24 -26 -97 -7 -132 -24
-53 -26 23 -1 53 -4 67 -8 21 -6 18 -8 -24 -14 -27 -4 -70 -7 -97 -7 -26 0
-51 -4 -54 -10 -4 -6 9 -10 32 -11 21 0 56 -4 78 -8 36 -7 32 -8 -48 -15 -135
-13 -125 -23 38 -39 17 -2 -10 -6 -60 -11 -125 -10 -148 -22 -63 -31 85 -9 79
-25 -10 -26 -87 -1 -123 -13 -67 -22 22 -4 58 -7 80 -8 62 -1 13 -17 -60 -19
-33 -2 -73 -6 -90 -9 -25 -6 -20 -9 37 -15 76 -9 82 -25 10 -27 -26 -1 -60 -5
-77 -9 l-30 -7 38 -6 c118 -21 117 -20 22 -29 -113 -10 -123 -14 -60 -22 101
-14 103 -19 10 -31 -97 -12 -93 -18 20 -34 45 -6 51 -9 24 -10 -70 -2 -159
-14 -159 -21 0 -4 26 -11 58 -16 l57 -10 -60 -7 c-120 -15 -128 -23 -32 -31
49 -4 87 -10 84 -12 -2 -2 -34 -7 -72 -10 -107 -9 -122 -20 -40 -30 54 -6 64
-9 45 -15 -14 -4 -45 -8 -70 -9 -84 -3 -90 -16 -11 -24 86 -9 84 -23 -4 -28
-75 -4 -78 -21 -5 -28 56 -5 49 -20 -10 -20 -40 0 -90 -11 -85 -19 2 -4 21 -8
42 -10 21 -1 56 -6 78 -11 36 -7 32 -8 -35 -10 -41 -1 -86 -5 -100 -10 l-25
-7 25 -6 c14 -4 45 -10 70 -15 44 -8 42 -9 -45 -16 -98 -9 -94 -19 11 -31 32
-3 60 -7 61 -9 4 -4 -136 -19 -164 -17 -13 0 -23 -4 -23 -9 0 -6 12 -11 28
-11 66 -3 82 -5 87 -11 4 -3 -23 -9 -59 -13 -36 -4 -66 -11 -66 -15 0 -5 26
-12 58 -16 50 -7 54 -9 27 -15 -16 -4 -49 -7 -72 -8 -63 -2 -60 -18 5 -26 43
-6 52 -9 37 -16 -11 -4 -40 -8 -65 -9 -83 -3 -91 -17 -15 -24 93 -10 99 -12
43 -20 -27 -3 -69 -9 -95 -13 l-48 -7 68 -10 c71 -11 81 -26 18 -26 -20 0 -54
-3 -76 -7 -31 -5 -35 -8 -20 -14 11 -4 39 -8 63 -8 67 -1 49 -21 -20 -22 -35
-1 -74 -4 -88 -8 -24 -7 -24 -7 9 -14 18 -4 54 -7 80 -7 25 0 52 -4 59 -9 19
-11 -32 -21 -122 -22 l-71 -2 73 -7 c41 -5 90 -12 110 -16 l37 -7 -30 -7 c-16
-4 -61 -9 -100 -10 -79 -2 -58 -17 30 -20 28 -1 59 -5 70 -9 26 -10 -34 -20
-135 -22 -126 -2 -149 -16 -30 -19 58 -1 114 -5 125 -10 25 -11 31 -10 -100
-17 -60 -3 -128 -9 -150 -13 -37 -7 -36 -8 25 -10 36 -1 90 -5 120 -9 l55 -7
-90 -7 c-112 -9 -185 -19 -165 -23 8 -2 38 -6 65 -10 63 -8 41 -18 -65 -30
l-75 -8 50 -7 c28 -4 105 -8 173 -8 67 -1 122 -5 122 -10 0 -4 -73 -13 -162
-18 l-163 -10 140 -2 c282 -4 289 -33 10 -42 -133 -4 -156 -6 -87 -8 50 -2 97
-5 102 -6 6 -1 51 -3 102 -4 70 -1 89 -4 80 -13 -7 -7 -81 -13 -214 -17 -226
-6 -198 -18 47 -20 135 -1 188 -10 150 -25 -9 -3 -116 -6 -237 -6 -122 0 -218
-3 -214 -7 3 -4 102 -8 219 -9 116 0 220 -5 230 -9 31 -13 -1 -25 -70 -25 -38
0 -63 -4 -63 -11 0 -6 17 -10 43 -8 23 1 62 -2 87 -6 79 -15 11 -23 -205 -25
-110 -1 -209 -5 -220 -10 -22 -10 -17 -10 249 -16 87 -2 161 -6 164 -9 3 -3
-48 -5 -114 -5 -142 0 -312 -8 -374 -17 l-45 -7 60 -7 c33 -4 96 -7 140 -8
134 -2 66 -21 -80 -22 -71 0 -150 -4 -175 -8 -38 -6 -25 -8 80 -15 143 -10
134 -20 -25 -32 -101 -7 -104 -20 -5 -24 l45 -2 -55 -13 c-30 -8 -70 -14 -88
-15 -18 0 -31 -4 -28 -9 7 -11 239 -11 257 0 9 5 4 10 -17 14 -84 18 -49 23
176 23 244 1 321 -6 250 -23 l-35 -7 33 -11 c37 -11 41 -23 12 -32 -33 -10
-12 -25 35 -25 24 0 47 -4 50 -10 4 -6 -6 -10 -24 -10 -70 0 -82 -26 -16 -36
82 -12 180 16 115 33 -26 7 -26 23 -1 23 26 0 37 18 17 26 -24 9 -19 21 11 29
25 6 26 8 11 19 -10 7 -15 16 -11 19 9 9 79 8 128 -2 l40 -9 -52 -1 c-28 0
-54 -5 -57 -10 -7 -11 162 -23 294 -21 166 3 364 0 369 -6 18 -18 -45 -24
-216 -22 -106 1 -195 0 -198 -3 -3 -3 87 -9 200 -12 113 -3 210 -9 216 -13 23
-14 -18 -24 -101 -25 -99 -1 -75 -16 30 -18 69 -1 105 -13 75 -25 -9 -3 -53
-6 -97 -6 -104 0 -94 -11 17 -19 114 -8 114 -25 0 -29 -124 -4 -136 -22 -15
-22 91 0 144 -12 110 -24 -8 -3 -91 -9 -185 -14 l-170 -9 177 -1 c113 -1 179
-6 183 -13 4 -6 5 -12 3 -14 -2 -3 -87 -8 -189 -12 l-184 -8 187 -5 c168 -5
211 -10 196 -25 -2 -3 -90 -9 -194 -13 l-189 -9 155 -3 c213 -3 256 -8 238
-26 -3 -3 -91 -8 -194 -12 l-189 -7 194 -7 c106 -4 196 -10 199 -13 15 -15
-26 -20 -211 -25 l-202 -5 204 -7 c112 -4 206 -10 209 -13 16 -15 -27 -20
-206 -25 l-197 -5 191 -7 c196 -8 252 -16 204 -29 -14 -4 -62 -7 -108 -8 -100
-1 -104 -21 -4 -22 37 0 87 -4 112 -8 l45 -7 -55 -7 c-30 -4 -83 -7 -117 -7
-34 0 -65 -4 -68 -10 -4 -6 19 -10 62 -11 37 0 88 -4 113 -8 l45 -7 -70 -7
c-38 -4 -137 -10 -220 -13 -82 -3 -152 -8 -154 -10 -2 -2 70 -4 160 -5 90 0
187 -4 214 -8 l50 -7 -65 -8 c-36 -4 -135 -11 -220 -15 l-155 -8 155 -3 c85
-1 184 -5 220 -9 l65 -6 -55 -7 c-30 -4 -134 -11 -230 -15 l-175 -8 177 -6
c161 -5 200 -10 187 -23 -3 -3 -90 -9 -194 -14 -184 -9 -186 -9 -75 -12 153
-4 269 -14 250 -23 -8 -4 -96 -11 -195 -15 l-180 -7 179 -8 c99 -5 186 -12
194 -16 20 -11 -85 -21 -252 -23 l-141 -1 135 -7 c74 -4 178 -11 230 -16 l95
-9 -75 -6 c-41 -3 -147 -8 -235 -9 l-160 -3 195 -13 c107 -7 200 -13 205 -14
35 -8 -105 -19 -242 -19 -90 -1 -163 -5 -163 -9 0 -5 37 -8 83 -7 45 0 163 -4
262 -10 l180 -11 -185 -9 c-102 -5 -241 -8 -310 -7 -69 1 -132 -2 -140 -8 -10
-6 56 -10 200 -11 118 0 238 -4 265 -8 l50 -7 -70 -9 c-38 -4 -170 -9 -292 -9
-122 -1 -225 -5 -229 -9 -4 -4 89 -7 207 -7 223 0 413 -9 404 -19 -8 -7 -68
-10 -393 -15 -150 -2 -276 -7 -279 -10 -4 -3 102 -6 234 -6 249 0 393 -7 393
-20 0 -9 8 -9 -370 -15 -363 -5 -334 -4 -328 -10 2 -3 149 -6 326 -7 241 -2
324 -6 334 -16 15 -15 41 -13 -307 -21 l-270 -7 225 -3 c124 -1 248 -6 275
-11 31 -5 69 -4 99 2 48 10 49 11 25 23 -26 15 -25 16 41 34 32 9 33 10 13 16
-33 10 -28 22 11 29 19 4 237 6 485 4 248 -1 454 1 457 5 16 16 -13 22 -89 17
-45 -2 -185 -4 -312 -4 -212 1 -278 0 -452 -1 -88 0 -104 21 -24 32 45 6 54
19 19 26 -22 3 -21 4 7 16 19 8 55 11 97 8 37 -2 79 -2 93 1 28 5 34 22 8 22
-10 0 -25 5 -33 10 -12 7 -10 11 10 18 l24 9 -29 16 -30 16 34 12 34 12 -29
12 c-28 11 -26 12 44 25 70 13 72 14 45 25 -31 13 -27 16 45 30 30 6 31 8 16
19 -21 16 -12 21 51 31 l50 8 -30 12 -29 13 39 11 c22 6 54 11 70 12 l30 1
-27 11 c-41 16 -34 25 22 33 28 4 50 10 50 15 0 5 -7 9 -15 9 -8 0 -15 4 -15
10 0 5 23 12 50 16 47 6 81 24 46 24 -28 0 -17 18 15 25 43 10 193 -5 159 -16
-14 -4 -46 -7 -72 -8 -60 -1 -75 -21 -16 -22 24 -1 54 -4 68 -9 l25 -7 -25 -6
c-14 -3 -61 -10 -105 -15 l-80 -9 80 -3 c44 -1 91 -5 105 -9 22 -6 23 -8 7
-14 -10 -4 -71 -10 -135 -14 l-117 -8 134 -7 c127 -7 151 -11 139 -24 -3 -3
-84 -9 -179 -13 l-174 -8 125 -2 c69 -1 508 -2 975 -3 468 -1 863 -4 880 -8
65 -13 -2 -21 -197 -24 -112 -2 -455 -5 -763 -7 l-560 -3 635 -8 c349 -4 651
-8 670 -9 19 -1 75 -1 123 0 55 2 93 -1 100 -8 14 -14 4 -14 -168 -15 -71 -1
-409 -3 -750 -6 l-620 -4 640 -8 c352 -5 695 -8 762 -8 69 1 130 -3 140 -9 22
-13 1 -15 -162 -15 -1049 -6 -1388 -8 -1380 -12 6 -2 303 -5 660 -7 361 -1
659 -6 669 -11 19 -9 19 -10 0 -17 -10 -4 -313 -8 -671 -8 -392 -1 -653 -5
-653 -10 0 -6 241 -9 603 -9 524 1 884 -6 894 -16 11 -11 -309 -17 -864 -18
-380 0 -643 -4 -643 -9 0 -5 274 -10 668 -10 367 -1 721 -4 787 -8 l120 -6
-135 -10 c-74 -5 -441 -9 -815 -8 -374 1 -718 1 -765 0 -85 -2 -489 -1 -630 1
-41 1 -79 -3 -84 -8 -12 -12 -112 -11 1119 -10 556 0 1064 -3 1130 -7 118 -7
119 -8 60 -16 -33 -5 -382 -12 -775 -16 l-715 -7 681 -2 c639 -2 901 -8 889
-20 -3 -3 -38 -8 -78 -10 -78 -6 -1489 -9 -1547 -4 -19 2 -143 -1 -275 -5
l-240 -8 242 -6 c226 -5 266 -9 250 -25 -4 -4 -109 -10 -234 -14 l-228 -7 178
-4 c281 -6 337 -5 337 6 1 6 -8 11 -20 13 -34 6 -22 20 23 27 59 9 1534 2
1543 -7 4 -5 4 -11 0 -15 -4 -5 -350 -10 -769 -13 l-762 -6 701 -2 c510 -1
717 -5 760 -14 l59 -13 -55 -6 c-30 -4 -372 -9 -760 -10 l-705 -4 720 -6 c814
-8 773 -7 779 -18 11 -17 -145 -21 -824 -23 l-695 -2 737 -6 c405 -3 740 -8
744 -12 4 -5 4 -11 0 -15 -4 -5 -336 -9 -737 -11 -401 -1 -729 -6 -729 -10 0
-4 287 -6 637 -5 351 1 673 -2 715 -7 80 -10 178 -3 178 11 0 5 -7 9 -16 9 -9
0 -14 6 -11 13 3 9 39 12 131 13 82 0 131 5 138 12 9 9 2 12 -28 13 -21 1 -50
4 -64 9 -21 6 -22 8 -7 14 9 3 25 9 35 13 12 4 2 9 -30 16 -51 10 -61 21 -27
30 25 7 16 27 -12 27 -10 0 -19 4 -19 9 0 16 118 23 357 19 217 -3 257 -7 239
-25 -4 -5 -123 -10 -264 -13 l-257 -5 275 -6 c266 -5 351 -1 287 16 -34 9 -28
17 26 31 41 11 41 11 15 19 -55 15 -22 34 62 36 l45 1 -54 9 c-84 14 -84 26
-2 36 57 7 67 17 20 20 -18 1 -34 5 -38 8 -8 9 21 25 47 25 12 0 22 4 22 9 0
5 -10 12 -22 15 l-23 7 23 11 c24 12 29 33 10 41 -10 4 -10 6 0 6 9 1 12 135
12 636 l0 635 -57 0 c-45 1 -54 3 -40 11 10 6 35 8 58 4 35 -6 39 -5 39 14 0
19 -6 21 -52 21 -38 0 -49 3 -41 11 6 6 30 10 52 7 34 -3 41 -1 41 14 0 15 -9
18 -46 18 -27 0 -43 4 -39 10 3 6 24 10 46 10 28 0 39 4 39 15 0 11 -11 15
-40 15 -22 0 -40 5 -40 10 0 6 18 10 40 10 29 0 40 4 40 15 0 10 -11 15 -35
15 -19 0 -35 5 -35 10 0 6 16 10 35 10 28 0 35 4 35 19 0 15 -7 19 -30 19 -17
-1 -33 2 -37 5 -3 4 10 7 30 7 30 0 37 4 37 19 0 15 -8 21 -37 24 l-38 4 38 1
c29 2 37 6 37 21 0 15 -8 21 -32 24 l-33 4 33 1 c24 2 32 7 32 21 0 14 -8 21
-27 24 l-28 4 28 2 c20 1 27 6 27 21 0 15 -7 20 -27 21 l-28 1 28 10 c33 12
36 38 5 39 l-23 0 23 11 c26 13 29 38 5 38 -17 1 -17 1 0 14 20 16 22 32 5 40
-10 5 -10 7 0 12 6 3 12 14 12 24 0 10 -6 21 -12 23 -9 4 -10 6 -1 6 9 1 12
196 13 821 l0 820 -1280 0 c-852 0 -1279 -3 -1275 -10z m-193 -710 c24 0 37
-4 33 -10 -3 -5 -39 -10 -80 -10 -41 0 -77 -4 -80 -10 -4 -6 19 -10 62 -10 37
0 78 -3 90 -6 44 -12 11 -24 -65 -24 -42 0 -84 -5 -92 -10 -11 -7 5 -10 51
-10 77 0 129 -9 129 -21 0 -5 -30 -9 -67 -10 -38 0 -88 -4 -113 -8 l-45 -7 70
-7 c39 -4 89 -7 113 -7 85 0 30 -18 -80 -26 -107 -7 -110 -8 -58 -15 30 -4 81
-7 112 -8 31 -1 59 -5 62 -10 8 -13 -45 -21 -158 -23 l-101 -1 115 -9 c63 -5
122 -12 130 -15 33 -12 -28 -22 -139 -22 -63 -1 -112 -3 -109 -6 3 -3 54 -8
114 -11 60 -3 118 -8 129 -11 l20 -6 -20 -8 c-11 -4 -48 -8 -83 -8 -39 -1 -61
-5 -57 -11 3 -5 30 -10 58 -10 29 0 63 -3 76 -7 23 -6 23 -7 5 -14 -10 -4 -42
-8 -71 -8 -70 -1 -80 -21 -11 -22 29 0 62 -4 72 -8 18 -7 18 -8 2 -14 -37 -14
-300 -20 -331 -7 l-30 12 35 15 c34 15 34 16 12 24 -26 10 -21 29 9 29 23 0
25 15 4 24 -22 8 -19 26 4 26 25 0 36 16 16 24 -22 8 -18 26 4 26 25 0 36 16
16 24 -22 8 -18 26 4 26 26 0 37 18 17 26 -23 9 -20 21 7 28 21 6 21 7 5 20
-25 18 -23 23 14 31 30 7 31 8 13 21 -22 16 -12 30 25 37 25 4 25 4 3 12 -13
4 -23 11 -23 15 0 15 25 20 84 15 32 -3 77 -5 98 -5z m1311 -57 c-51 -2 -136
-2 -190 0 -54 1 -12 3 92 3 105 0 149 -2 98 -3z m145 0 c-10 -2 -26 -2 -35 0
-10 3 -2 5 17 5 19 0 27 -2 18 -5z m95 0 c-13 -2 -33 -2 -45 0 -13 2 -3 4 22
4 25 0 35 -2 23 -4z m122 -3 c-3 -5 -21 -10 -40 -10 -19 0 -37 5 -40 10 -4 6
12 10 40 10 28 0 44 -4 40 -10z m-512 -47 c-23 -2 -64 -2 -90 0 -26 2 -7 3 42
3 50 0 71 -1 48 -3z m360 0 c-24 -2 -62 -2 -85 0 -24 2 -5 4 42 4 47 0 66 -2
43 -4z m167 -3 c0 -5 -22 -10 -50 -10 -27 0 -50 5 -50 10 0 6 23 10 50 10 28
0 50 -4 50 -10z m-385 -50 c-29 -12 -285 -12 -285 0 0 6 57 10 153 9 94 0 144
-4 132 -9z m390 0 c4 -6 -47 -10 -144 -10 -94 0 -151 4 -151 10 0 6 55 10 144
10 86 0 147 -4 151 -10z m-1 -49 c7 -11 -78 -21 -122 -14 -52 9 -18 23 55 23
34 0 64 -4 67 -9z m-2191 -8 c-7 -2 -21 -2 -30 0 -10 3 -4 5 12 5 17 0 24 -2
18 -5z m1835 0 c-53 -2 -143 -2 -200 0 -57 1 -13 3 97 3 110 0 156 -2 103 -3z
m160 0 c-10 -2 -26 -2 -35 0 -10 3 -2 5 17 5 19 0 27 -2 18 -5z m-2003 -43 c4
-6 -9 -10 -32 -10 -28 0 -34 3 -23 10 20 13 47 13 55 0z m2209 1 c10 -16 -34
-17 -374 -11 l-335 5 280 5 c154 3 312 6 352 8 39 1 74 -2 77 -7z m-2215 -50
c9 -6 3 -10 -20 -13 -39 -6 -62 0 -53 13 7 11 55 11 73 0z m2219 0 c22 -13
-10 -21 -88 -21 -73 0 -103 7 -94 21 7 11 164 12 182 0z m-330 -8 c-76 -2
-200 -2 -275 0 -76 1 -14 3 137 3 151 0 213 -2 138 -3z m-1913 -42 c26 -6 21
-8 -33 -15 -64 -7 -102 1 -66 15 23 9 58 9 99 0z m2249 3 c34 -13 2 -24 -70
-24 -43 0 -74 -4 -74 -10 0 -6 30 -10 69 -10 38 0 76 -3 85 -6 34 -13 2 -24
-69 -24 -41 0 -77 -4 -80 -10 -4 -6 11 -10 37 -10 24 0 61 -3 83 -7 31 -5 35
-8 20 -14 -11 -4 -45 -8 -75 -8 -103 -2 -95 -29 10 -32 44 -2 44 -2 -17 -12
-37 -6 -96 -6 -150 -1 -58 6 -74 9 -48 11 22 2 56 6 75 9 33 5 34 7 15 20 -10
8 -42 15 -69 15 -49 2 -48 2 16 9 110 11 108 30 -5 40 -65 6 -67 7 -21 9 100
2 145 21 87 36 -21 5 -24 8 -12 16 16 10 168 12 193 3z m-346 -11 c-76 -2
-200 -2 -275 0 -76 1 -14 3 137 3 151 0 213 -2 138 -3z m-1940 -40 c29 -3 48
-9 42 -13 -18 -11 -150 -12 -150 -1 0 20 30 24 108 14z m1844 -10 c-62 -2
-161 -2 -220 0 -59 1 -8 3 113 3 121 0 169 -2 107 -3z m-1827 -43 c23 0 27 -3
15 -10 -8 -5 -38 -10 -67 -10 -28 0 -54 -4 -57 -9 -6 -9 49 -21 97 -21 15 0
27 -4 27 -9 0 -9 -156 -22 -176 -14 -17 6 -18 23 -1 23 6 0 19 5 27 10 13 8
13 11 1 19 -29 19 0 34 53 27 28 -3 65 -6 81 -6z m559 1 c37 -14 -1 -21 -151
-29 l-148 -7 142 -5 c130 -5 166 -11 151 -26 -4 -3 -75 -8 -160 -12 l-153 -7
152 -6 c143 -5 175 -10 160 -25 -3 -3 -77 -9 -164 -13 l-158 -6 158 -7 c87 -3
161 -9 165 -12 14 -15 -20 -20 -171 -26 l-162 -5 150 -7 c233 -10 240 -34 10
-39 l-100 -2 109 -8 c60 -4 120 -11 135 -14 24 -7 25 -8 6 -15 -11 -5 -49 -9
-85 -10 -74 -2 -57 -18 20 -19 55 -1 83 -15 48 -24 -12 -4 -35 -7 -50 -7 -50
0 -29 -18 30 -25 l57 -8 -45 -10 c-26 -5 -85 -6 -140 -1 l-95 8 80 10 c101 14
78 26 -50 26 -102 0 -158 8 -149 21 3 5 34 9 69 9 35 0 66 4 69 9 3 5 -23 8
-59 8 -76 -2 -106 15 -59 34 29 11 29 11 7 20 -28 10 -30 29 -3 29 23 0 27 18
5 26 -24 10 -17 22 18 30 l32 7 -27 9 c-37 13 -35 24 5 33 31 6 31 7 10 17
-30 15 -29 24 4 35 l28 10 -24 12 c-19 10 -21 15 -10 22 17 11 316 11 343 0z
m1269 -8 c-62 -2 -164 -2 -225 0 -62 1 -12 3 112 3 124 0 174 -2 113 -3z m76
-47 c-8 -8 -418 -11 -425 -3 -4 4 91 7 211 7 120 0 216 -2 214 -4z m-1938 -46
c22 0 39 -4 39 -10 0 -6 -28 -10 -62 -11 -35 0 -72 -4 -83 -8 -16 -7 -14 -9
14 -14 19 -4 53 -7 77 -7 23 0 45 -4 48 -9 6 -9 -61 -21 -128 -22 -62 -1 -15
-17 54 -18 124 -2 76 -30 -55 -32 -82 -1 -43 -17 45 -18 36 -1 72 -6 80 -11 8
-5 13 -10 10 -10 -60 -10 -232 -15 -252 -7 -33 11 -28 27 8 27 13 0 24 5 24
10 0 6 -4 10 -10 10 -5 0 -10 7 -10 15 0 8 9 15 19 15 28 0 35 17 11 25 -30 9
-24 22 13 29 l32 7 -25 14 -25 14 25 10 c14 6 45 9 69 6 24 -3 61 -5 82 -5z
m1879 -11 c-44 -10 -340 -9 -340 3 0 4 84 8 188 7 126 -1 176 -4 152 -10z
m185 1 c-3 -5 -22 -10 -41 -10 -19 0 -34 5 -34 10 0 6 18 10 41 10 24 0 38 -4
34 -10z m90 0 c-3 -5 -17 -10 -30 -10 -13 0 -27 5 -30 10 -4 6 8 10 30 10 22
0 34 -4 30 -10z m-285 -50 c0 -6 -69 -10 -186 -10 -121 0 -183 3 -179 10 4 6
77 10 186 10 113 0 179 -4 179 -10z m140 0 c0 -5 -9 -10 -20 -10 -11 0 -20 5
-20 10 0 6 9 10 20 10 11 0 20 -4 20 -10z m-222 -57 c-60 -2 -156 -2 -215 0
-60 1 -11 3 107 3 118 0 167 -2 108 -3z m230 0 c-16 -2 -40 -2 -55 0 -16 2 -3
4 27 4 30 0 43 -2 28 -4z m-236 -50 c-62 -2 -161 -2 -220 0 -59 1 -8 3 113 3
121 0 169 -2 107 -3z m231 0 c-13 -2 -35 -2 -50 0 -16 2 -5 4 22 4 28 0 40 -2
28 -4z m-2018 -42 c30 -7 7 -9 -88 -10 -83 -1 -126 3 -122 9 7 12 153 12 210
1z m2350 3 c13 -5 14 -8 3 -15 -18 -12 -65 -11 -72 0 -11 17 37 27 69 15z
m-587 -11 c-60 -2 -156 -2 -215 0 -60 1 -11 3 107 3 118 0 167 -2 108 -3z
m245 0 c-13 -2 -35 -2 -50 0 -16 2 -5 4 22 4 28 0 40 -2 28 -4z m345 -42 c20
-12 -9 -21 -73 -21 -53 0 -82 14 -48 23 31 8 108 7 121 -2z m-615 -8 c-57 -2
-149 -2 -205 0 -57 1 -11 3 102 3 113 0 159 -2 103 -3z m244 0 c-20 -2 -52 -2
-70 0 -17 2 0 4 38 4 39 0 53 -2 32 -4z m-1452 -43 c18 -7 18 -8 -7 -15 -16
-4 -40 -4 -55 0 -26 7 -26 8 -8 15 11 5 27 9 35 9 8 0 24 -4 35 -9z m1813 3
c43 -11 1 -23 -85 -23 -76 0 -94 5 -76 23 8 9 130 9 161 0z m-2010 -10 c-10
-2 -26 -2 -35 0 -10 3 -2 5 17 5 19 0 27 -2 18 -5z m1400 0 c-60 -2 -156 -2
-215 0 -60 1 -11 3 107 3 118 0 167 -2 108 -3z m225 0 c-18 -2 -48 -2 -65 0
-18 2 -4 4 32 4 36 0 50 -2 33 -4z m369 -39 c67 -11 29 -24 -73 -24 -88 0
-122 9 -86 23 18 8 116 8 159 1z m-1929 -11 c-7 -2 -21 -2 -30 0 -10 3 -4 5
12 5 17 0 24 -2 18 -5z m1222 -3 c-99 -3 -187 -2 -195 2 -8 4 73 7 180 6 l195
-2 -180 -6z m352 4 c-7 -7 -107 -7 -115 0 -3 3 23 6 58 6 35 0 61 -3 57 -6z
m346 -43 c26 -1 47 -5 47 -11 0 -6 -31 -10 -74 -10 -41 0 -82 -3 -91 -6 -32
-13 7 -24 83 -24 41 0 72 -4 72 -10 0 -9 -15 -12 -100 -16 -67 -3 -71 -4 -65
-14 3 -5 42 -10 85 -10 43 0 81 -4 84 -9 7 -11 -52 -21 -122 -21 -33 0 -51 -4
-47 -10 3 -5 39 -10 80 -10 73 0 105 -12 62 -24 -12 -3 -53 -6 -90 -6 -43 0
-66 -4 -62 -10 3 -5 37 -10 75 -10 37 0 76 -3 85 -6 32 -13 -8 -24 -87 -24
-45 0 -78 -4 -78 -10 0 -6 31 -10 74 -10 41 0 82 -3 91 -6 32 -13 -8 -24 -87
-24 -42 0 -80 -4 -83 -10 -4 -6 21 -10 67 -10 40 0 84 -3 96 -7 41 -10 3 -23
-73 -23 -38 0 -77 -5 -85 -10 -11 -7 3 -10 46 -10 74 0 126 -9 118 -21 -3 -5
-38 -9 -77 -9 -76 0 -133 -18 -67 -21 131 -6 140 -8 140 -19 0 -6 -30 -10 -67
-11 -38 0 -77 -4 -87 -8 -18 -7 -18 -8 5 -14 13 -4 52 -7 87 -7 34 0 62 -4 62
-10 0 -5 -24 -10 -54 -10 -29 0 -67 -3 -85 -6 -54 -11 -22 -24 60 -24 43 0 79
-4 79 -9 0 -14 -39 -21 -115 -21 -49 0 -65 -3 -55 -10 8 -5 45 -10 82 -10 67
0 99 -14 56 -25 -41 -11 -181 -1 -186 13 -2 6 3 12 12 12 23 0 20 17 -4 25
-26 8 -25 21 3 29 l22 7 -22 11 c-30 15 -29 24 5 33 l27 8 -27 10 c-34 13 -35
21 -5 35 l22 11 -22 7 c-28 8 -29 21 -3 29 26 8 25 21 -2 29 l-23 7 23 11 c25
12 29 28 8 28 -24 0 -30 21 -7 27 24 6 28 23 6 23 -25 0 -17 20 13 31 l27 11
-27 10 c-32 11 -37 28 -9 28 30 0 35 19 6 26 -28 7 -24 24 6 24 25 0 25 20 -1
27 -28 7 -25 17 8 30 27 11 27 11 5 18 -13 4 -23 11 -23 15 0 15 24 19 80 15
30 -2 76 -4 103 -4z m-553 -10 c0 -6 -73 -10 -175 -10 -112 -1 -175 2 -175 9
0 6 64 10 175 10 102 0 175 -4 175 -9z m185 -1 c-3 -5 -24 -10 -45 -10 -21 0
-42 5 -45 10 -4 6 13 10 45 10 32 0 49 -4 45 -10z m-235 -50 c0 -6 -55 -10
-155 -10 -87 0 -155 4 -155 9 0 5 69 10 155 10 101 1 155 -2 155 -9z m60 0 c0
-5 -4 -10 -10 -10 -5 0 -10 5 -10 10 0 6 5 10 10 10 6 0 10 -4 10 -10z m150 0
c0 -5 -22 -10 -50 -10 -27 0 -50 5 -50 10 0 6 23 10 50 10 28 0 50 -4 50 -10z
m-2302 -49 c10 -6 4 -10 -18 -15 -40 -8 -88 3 -68 15 17 11 69 11 86 0z m367
0 c30 -12 -42 -21 -172 -21 -117 0 -155 6 -131 21 16 11 276 10 303 0z m1710
-5 c17 -1 -51 -3 -150 -4 -99 0 -172 2 -163 6 16 7 246 5 313 -2z m244 -2 c2
-2 -29 -3 -70 -3 -59 1 -67 3 -39 9 32 7 99 3 109 -6z m-1772 0 c-3 -3 -12 -4
-19 -1 -8 3 -5 6 6 6 11 1 17 -2 13 -5z m-547 -43 c0 -13 -27 -21 -75 -21 -43
0 -67 13 -43 23 22 9 118 7 118 -2z m368 -3 c-3 -10 -44 -14 -149 -16 -149 -3
-194 2 -184 18 10 16 338 13 333 -2z m330 3 c9 -5 -3 -10 -34 -15 -90 -12
-180 -4 -168 15 7 11 185 12 202 0z m1552 -1 c11 -7 1 -9 -35 -9 -44 1 -46 2
-20 9 17 4 32 8 35 9 3 0 12 -4 20 -9z m100 0 c11 -7 5 -10 -23 -10 -23 0 -36
4 -32 10 8 13 35 13 55 0z m-358 -7 c-51 -2 -132 -2 -180 0 -48 1 -6 3 93 3
99 0 138 -2 87 -3z m1015 1 c-3 -3 -12 -4 -19 -1 -8 3 -5 6 6 6 11 1 17 -2 13
-5z m-2643 -44 c17 -17 -39 -21 -272 -18 -146 2 -232 7 -232 13 0 6 43 10 105
11 58 1 107 3 109 5 8 8 281 -2 290 -11z m295 1 c9 -6 -10 -10 -56 -13 -81 -3
-106 0 -98 13 8 12 135 12 154 0z m1690 0 c12 -8 9 -11 -11 -16 -34 -9 -77 3
-57 16 18 11 50 11 68 0z m-386 -8 c-46 -2 -120 -2 -165 0 -46 1 -9 3 82 3 91
0 128 -2 83 -3z m265 0 c-16 -2 -40 -2 -55 0 -16 2 -3 4 27 4 30 0 43 -2 28
-4z m775 0 c-7 -2 -21 -2 -30 0 -10 3 -4 5 12 5 17 0 24 -2 18 -5z m-3014 -49
c2 -2 -29 -4 -70 -3 -51 1 -66 3 -49 9 23 7 109 2 119 -6z m260 0 c2 -2 -49
-4 -115 -4 -83 0 -115 3 -104 10 14 10 209 4 219 -6z m556 5 c17 -1 16 -2 -5
-9 -32 -10 -93 -12 -117 -3 -16 6 -15 8 7 14 14 5 41 6 60 4 19 -3 44 -5 55
-6z m1533 2 c25 -16 -12 -20 -114 -13 l-99 7 80 6 c44 3 89 6 100 7 11 1 26
-2 33 -7z m661 0 c12 -8 9 -11 -11 -16 -29 -8 -52 1 -43 16 8 12 36 11 54 0z
m-2662 -7 c-3 -3 -12 -4 -19 -1 -8 3 -5 6 6 6 11 1 17 -2 13 -5z m1758 -2 c-6
-4 -95 -5 -200 -2 l-190 6 200 2 c109 1 195 -1 190 -6z m-1312 -39 c62 -10 22
-23 -70 -23 -115 0 -109 21 7 28 14 1 42 -1 63 -5z m1545 -2 c7 0 11 -5 8 -9
-5 -8 -102 -8 -491 -1 l-170 3 190 6 c167 4 426 5 463 1z m666 3 c24 -9 9 -24
-24 -24 -31 0 -48 15 -28 23 19 8 34 8 52 1z m-2204 -54 c33 -10 14 -17 -72
-24 -70 -7 -148 1 -148 15 0 4 10 10 23 12 37 7 170 5 197 -3z m1288 -7 c4
-14 -53 -18 -85 -6 -16 6 -15 8 7 14 35 10 73 6 78 -8z m247 9 c22 -4 35 -11
29 -14 -16 -10 -116 -12 -144 -3 l-25 9 30 7 c40 9 63 9 110 1z m672 2 c13 -4
20 -10 17 -15 -6 -11 -65 -12 -91 -2 -16 6 -15 8 7 14 34 9 41 10 67 3z
m-3584 -11 c-7 -2 -19 -2 -25 0 -7 3 -2 5 12 5 14 0 19 -2 13 -5z m2474 1 c-7
-7 -199 -6 -206 2 -2 2 44 4 104 4 60 0 106 -3 102 -6z m68 -4 c-3 -5 -13 -10
-21 -10 -8 0 -14 5 -14 10 0 6 9 10 21 10 11 0 17 -4 14 -10z m197 -2 c-9 -9
-15 -9 -24 0 -9 9 -7 12 12 12 19 0 21 -3 12 -12z m-1362 -37 c44 -12 4 -23
-108 -29 l-107 -7 102 -5 c99 -6 124 -12 109 -27 -10 -10 -227 -17 -281 -8
-56 8 -51 16 18 31 l52 11 -42 8 c-53 9 -55 22 -5 28 64 6 236 5 262 -2z
m1244 3 c30 -12 16 -24 -26 -24 -40 1 -42 2 -24 15 22 17 27 18 50 9z m304 -4
c6 0 12 -4 12 -10 0 -5 -22 -10 -49 -10 -50 0 -74 -13 -45 -24 9 -3 31 -6 50
-6 52 0 40 -17 -18 -24 -61 -8 -49 -26 19 -26 23 0 45 -4 48 -10 5 -8 -307
-18 -404 -12 -46 2 -43 21 5 22 16 0 71 0 123 0 52 0 101 5 110 10 17 9 18 9
-29 23 -13 4 -13 5 0 10 8 3 28 8 43 11 49 11 18 26 -53 26 -38 0 -72 5 -75
11 -5 7 14 9 58 7 36 -1 69 1 74 6 4 4 33 5 63 2 30 -3 61 -5 68 -6z m651 4
c50 -10 36 -24 -24 -24 -66 0 -75 18 -14 29 4 0 21 -2 38 -5z m-1079 -14 c0
-6 -45 -10 -114 -10 -66 0 -117 4 -121 10 -4 6 37 10 114 10 74 0 121 -4 121
-10z m40 0 c0 -5 -7 -7 -15 -4 -8 4 -15 8 -15 10 0 2 7 4 15 4 8 0 15 -4 15
-10z m-1575 -50 c6 -9 -114 -13 -400 -13 -173 1 -205 3 -205 13 0 6 106 10
299 10 189 0 302 -4 306 -10z m1550 0 c-4 -6 -62 -10 -141 -10 -83 0 -134 4
-134 10 0 6 54 10 141 10 91 0 138 -4 134 -10z m179 1 c6 -9 -120 -21 -141
-13 -7 2 -13 8 -13 13 0 12 147 12 154 0z m916 -1 c0 -6 -27 -10 -60 -10 -33
0 -60 4 -60 10 0 6 27 10 60 10 33 0 60 -4 60 -10z m-2240 -45 c21 -14 -24
-22 -135 -25 l-90 -3 104 -8 c56 -4 106 -10 109 -13 14 -15 -18 -21 -121 -26
l-112 -5 102 -7 c169 -10 163 -36 -9 -37 -54 -1 -98 -4 -98 -8 0 -5 33 -8 73
-8 39 -1 90 -5 112 -9 35 -7 37 -9 18 -17 -12 -4 -63 -9 -113 -11 -115 -3
-130 -18 -18 -18 46 1 97 -3 113 -8 30 -9 30 -9 -15 -16 -25 -4 -76 -10 -115
-15 l-70 -8 80 -3 c44 -1 91 -5 105 -9 24 -7 24 -8 -10 -16 -19 -4 -69 -11
-110 -15 l-75 -7 60 -2 c78 -2 136 -11 130 -22 -3 -4 -47 -11 -98 -15 -104 -8
-103 -10 6 -19 42 -4 75 -10 72 -15 -3 -5 -40 -12 -83 -16 l-77 -8 60 -8 c82
-12 98 -19 60 -28 -16 -4 -50 -8 -75 -10 -35 -1 -41 -3 -25 -10 11 -5 37 -9
57 -9 61 -1 53 -19 -12 -27 -67 -7 -81 -24 -21 -24 42 0 62 -14 35 -24 -25 -9
-107 -7 -124 4 -13 8 -11 11 8 16 27 8 28 21 2 29 -26 8 -25 21 3 29 l22 7
-22 11 c-13 6 -23 14 -23 18 0 4 10 11 23 14 l22 7 -22 11 c-13 6 -23 14 -23
18 0 4 10 12 23 17 22 11 22 11 -8 23 l-30 12 30 13 30 13 -30 12 -30 12 30
13 30 13 -30 12 c-30 12 -30 12 -7 23 25 11 29 27 8 27 -28 0 -27 20 1 31 l28
11 -30 13 -30 13 30 12 c29 12 30 12 8 21 -13 4 -23 12 -23 18 0 5 10 12 23
15 l22 6 -25 15 -25 14 25 10 c30 13 278 10 300 -4z m-396 -4 c11 -17 -72 -22
-330 -20 -271 2 -316 5 -292 20 18 12 615 11 622 0z m1502 -3 c4 -5 -55 -8
-132 -7 -76 0 -131 3 -122 7 24 9 244 9 254 0z m1139 3 c7 -12 -96 -25 -124
-16 -12 3 -19 11 -16 16 8 12 132 12 140 0z m-2647 -50 c25 -16 -57 -23 -247
-21 -296 3 -363 1 -356 -10 4 -6 115 -10 300 -10 265 0 336 -6 289 -24 -9 -3
-142 -6 -297 -6 -186 0 -277 -4 -267 -10 9 -6 130 -10 292 -10 250 0 310 -5
279 -24 -4 -3 -154 -6 -331 -6 -322 -1 -381 5 -314 31 29 11 29 11 7 20 -30
11 -29 17 5 30 24 9 25 12 10 20 -10 6 -18 14 -18 19 0 13 630 13 648 1z
m1751 -7 c2 -2 -41 -4 -97 -4 -63 0 -102 4 -102 10 0 10 188 3 199 -6z m210 0
c2 -2 -34 -3 -80 -2 -79 1 -81 2 -29 8 50 6 98 3 109 -6z m686 7 c7 -12 -67
-24 -114 -19 -19 2 -36 9 -39 16 -5 15 143 18 153 3z m-1202 -8 c-40 -2 -107
-2 -150 0 -43 1 -10 3 72 3 83 0 118 -2 78 -3z m867 -40 c29 -10 -23 -22 -105
-22 -86 -1 -127 12 -87 26 23 9 166 6 192 -4z m328 -2 c18 -11 -17 -21 -75
-21 -24 0 -43 -4 -43 -10 0 -5 20 -10 44 -10 24 0 51 -3 60 -6 31 -12 4 -24
-55 -24 -33 0 -59 -4 -59 -10 0 -5 22 -10 49 -10 27 0 56 -3 65 -6 31 -12 4
-24 -54 -24 -32 0 -62 -4 -65 -10 -4 -6 13 -10 44 -10 27 0 56 -3 65 -6 33
-13 14 -24 -41 -24 -32 0 -65 -5 -73 -10 -11 -7 -1 -10 35 -10 56 0 95 -8 95
-20 0 -9 -174 -22 -195 -14 -23 9 -18 21 13 32 l27 10 -30 12 -30 13 33 10
c33 10 44 27 16 27 -24 0 -11 24 17 30 l24 6 -23 13 c-25 14 -21 31 9 31 23 0
25 15 4 24 -8 3 -15 10 -15 16 0 12 139 14 158 1z m-1195 -8 c-40 -2 -107 -2
-150 0 -43 1 -10 3 72 3 83 0 118 -2 78 -3z m265 0 c-15 -2 -42 -2 -60 0 -18
2 -6 4 27 4 33 0 48 -2 33 -4z m590 -42 c23 -14 -12 -21 -103 -21 -77 0 -104
7 -88 24 9 9 176 7 191 -3z m-880 -8 c-43 -2 -113 -2 -155 0 -43 1 -8 3 77 3
85 0 120 -2 78 -3z m270 0 c-15 -2 -42 -2 -60 0 -18 2 -6 4 27 4 33 0 48 -2
33 -4z m1620 0 c-15 -2 -42 -2 -60 0 -18 2 -6 4 27 4 33 0 48 -2 33 -4z
m-3310 -42 c30 -18 -32 -22 -327 -20 -309 2 -354 5 -329 20 17 11 639 11 656
0z m2290 0 c21 -13 -10 -21 -83 -21 -35 0 -71 3 -80 6 -31 12 7 24 80 24 39 0
76 -4 83 -9z m-890 -8 c-43 -2 -113 -2 -155 0 -43 1 -8 3 77 3 85 0 120 -2 78
-3z m270 0 c-16 -2 -40 -2 -55 0 -16 2 -3 4 27 4 30 0 43 -2 28 -4z m1629 0
c-20 -2 -52 -2 -70 0 -17 2 0 4 38 4 39 0 53 -2 32 -4z m-3292 -42 l30 -7 -30
-8 c-37 -9 -300 -9 -369 1 l-51 7 40 7 c54 8 342 8 380 0z m2262 3 c41 -11 13
-24 -52 -24 -93 0 -98 26 -5 29 19 0 45 -2 57 -5z m-3384 -11 c-7 -2 -19 -2
-25 0 -7 3 -2 5 12 5 14 0 19 -2 13 -5z m2545 1 c-7 -7 -259 -6 -266 1 -3 3
57 5 133 5 76 0 136 -3 133 -6z m205 -1 c-13 -2 -35 -2 -50 0 -16 2 -5 4 22 4
28 0 40 -2 28 -4z m1635 0 c-16 -2 -40 -2 -55 0 -16 2 -3 4 27 4 30 0 43 -2
28 -4z m-3258 -42 c25 -5 43 -9 40 -10 -3 -1 -48 -6 -100 -11 -100 -10 -280
-3 -280 11 0 16 264 23 340 10z m2260 0 c24 -7 23 -9 -16 -19 -31 -9 -49 -9
-75 0 -34 12 -34 12 -9 19 32 9 69 9 100 0z m-893 -7 c-10 -10 -160 -13 -198
-4 -24 6 2 8 85 9 66 1 116 -2 113 -5z m258 -4 c-3 -5 -17 -10 -30 -10 -13 0
-27 5 -30 10 -4 6 8 10 30 10 22 0 34 -4 30 -10z m1635 0 c0 -13 -50 -13 -70
0 -11 7 -4 10 28 10 23 0 42 -4 42 -10z m-3251 -46 c13 -12 -23 -16 -161 -18
-88 0 -159 3 -168 9 -12 8 -6 11 25 17 40 6 296 0 304 -8z m2219 10 c12 -4 22
-10 22 -14 0 -11 -53 -20 -79 -13 -28 7 -27 20 2 26 12 2 24 5 27 6 3 0 15 -2
28 -5z m315 0 c43 -4 77 -10 77 -14 0 -10 -191 -23 -213 -15 -34 14 -14 31 39
34 12 0 55 -2 97 -5z m-1218 -14 c-7 -12 -158 -12 -195 0 -16 5 16 8 88 9 73
1 111 -3 107 -9z m259 -2 c-15 -7 -28 -7 -40 1 -16 9 -12 10 21 10 35 0 37 -2
19 -11z m1646 2 c-20 -13 -50 -13 -50 0 0 6 15 10 33 10 24 0 28 -3 17 -10z
m-987 -50 c11 -10 -59 -23 -83 -15 -11 4 -20 10 -20 15 0 19 83 18 103 0z
m376 4 c13 -12 -20 -18 -113 -22 -112 -5 -164 7 -116 27 22 9 218 5 229 -5z
m-1309 -4 c0 -6 -44 -10 -112 -9 -72 1 -104 4 -88 9 37 12 200 12 200 0z m270
0 c0 -5 -21 -10 -47 -10 -35 0 -44 3 -33 10 20 13 80 13 80 0z m1650 0 c11 -7
5 -10 -23 -10 -23 0 -36 4 -32 10 8 13 35 13 55 0z m-1006 -50 c10 -10 -58
-25 -79 -16 -20 7 -19 23 3 29 21 6 64 -1 76 -13z m391 2 c17 -10 -36 -20
-120 -22 -71 -2 -75 -3 -40 -11 22 -4 66 -8 97 -8 59 -1 84 -14 45 -25 -12 -3
-67 -6 -121 -6 -126 0 -117 -13 12 -17 53 -2 104 -6 112 -9 36 -13 -21 -24
-123 -24 -70 0 -106 -4 -102 -10 3 -6 50 -10 105 -10 54 0 106 -3 115 -6 29
-12 -5 -24 -70 -25 -33 0 -82 -4 -110 -9 -43 -6 -36 -8 55 -9 88 -2 159 -13
140 -22 -3 -1 -68 -8 -145 -14 l-140 -12 115 -3 c63 -1 129 -6 145 -10 l30 -7
-25 -6 c-14 -4 -86 -11 -160 -16 -122 -7 -127 -8 -50 -10 120 -2 222 -13 213
-22 -5 -5 -78 -12 -163 -16 l-155 -8 110 -6 c61 -4 132 -7 160 -8 39 -1 47 -4
37 -13 -14 -14 -288 -25 -348 -13 -42 7 -44 21 -3 29 30 6 32 26 3 26 -28 0
-13 17 24 27 33 10 35 11 15 18 -32 10 -28 22 9 30 l31 7 -24 18 -24 18 28 7
c32 8 33 13 10 31 -16 12 -15 14 16 20 l34 7 -24 18 -24 18 33 7 c37 7 42 19
11 27 -28 8 -17 23 23 32 30 7 31 8 10 14 -13 3 -23 11 -23 16 0 6 10 13 23
17 25 7 217 -1 233 -10z m-1336 -8 c2 -2 -43 -4 -100 -4 -73 0 -100 3 -89 10
14 10 178 4 189 -6z m236 6 c4 -6 -7 -10 -27 -10 -25 0 -29 3 -18 10 19 13 37
13 45 0z m325 -11 c-74 -3 -157 -3 -185 0 -32 4 8 8 115 11 91 3 174 3 185 0
11 -3 -41 -8 -115 -11z m1373 4 c-13 -2 -35 -2 -50 0 -16 2 -5 4 22 4 28 0 40
-2 28 -4z m-999 -41 c13 -7 -16 -22 -46 -22 -35 0 -45 18 -16 29 21 8 39 6 62
-7z m-209 -1 c29 -11 -110 -21 -306 -21 -170 0 -213 5 -187 21 16 11 466 10
493 0z m-807 -8 c-32 -2 -86 -2 -120 0 -35 2 -9 3 57 3 66 0 94 -1 63 -3z
m280 0 c-10 -2 -26 -2 -35 0 -10 3 -2 5 17 5 19 0 27 -2 18 -5z m1710 0 c-10
-2 -28 -2 -40 0 -13 2 -5 4 17 4 22 1 32 -1 23 -4z m-1188 -40 c39 -5 42 -7
20 -14 -14 -4 -42 -7 -62 -8 -60 -2 -44 -18 25 -26 54 -6 59 -8 37 -17 -14 -6
-140 -10 -290 -10 -437 0 -509 2 -515 12 -7 12 -13 11 214 15 106 2 178 8 184
14 8 8 -6 11 -48 11 -68 0 -106 15 -64 24 56 14 398 13 499 -1z m-1802 -2 c19
-11 -8 -21 -58 -21 -46 0 -72 9 -64 21 7 11 105 12 122 0z m2016 0 c8 -12 -34
-22 -62 -15 -12 4 -19 10 -16 15 7 12 71 12 78 0z m-1066 -8 c-26 -2 -71 -2
-100 0 -29 2 -8 3 47 3 55 0 79 -1 53 -3z m220 0 c-10 -2 -26 -2 -35 0 -10 3
-2 5 17 5 19 0 27 -2 18 -5z m85 0 c-7 -2 -21 -2 -30 0 -10 3 -4 5 12 5 17 0
24 -2 18 -5z m1700 0 c-7 -2 -19 -2 -25 0 -7 3 -2 5 12 5 14 0 19 -2 13 -5z
m-2969 -42 c18 -7 18 -8 -5 -14 -51 -14 -102 -4 -82 17 8 8 63 6 87 -3z m914
-8 c-21 -2 -57 -2 -80 0 -24 2 -7 4 37 4 44 0 63 -2 43 -4z m2110 -4 c-11 -6
-34 -6 -65 0 l-48 9 65 1 c48 0 60 -2 48 -10z m-3019 -45 c8 -7 -70 -16 -86
-10 -15 6 -15 8 -3 16 13 8 77 4 89 -6z m1831 7 l45 -8 -40 -9 c-52 -12 -636
-9 -995 6 l-115 4 135 6 c219 8 921 10 970 1z m1188 0 c24 -15 -18 -23 -78
-14 l-55 7 40 7 c60 9 79 10 93 0z m-1021 -7 c-3 -3 -12 -4 -19 -1 -8 3 -5 6
6 6 11 1 17 -2 13 -5z m-189 -40 c47 -5 61 -9 52 -18 -7 -7 -111 -13 -318 -17
l-307 -5 265 -2 c303 -2 407 -9 390 -26 -7 -7 -122 -13 -348 -16 l-337 -5 347
-5 c190 -3 350 -8 354 -12 4 -5 4 -11 0 -15 -4 -5 -173 -10 -374 -13 l-367 -5
360 -5 c337 -5 431 -13 365 -31 -14 -4 -189 -7 -389 -8 -200 -1 -362 -3 -359
-6 3 -3 171 -6 374 -8 345 -3 457 -11 379 -28 -16 -4 -205 -7 -419 -8 -214 0
-387 -4 -383 -7 3 -3 176 -7 384 -8 208 0 384 -5 392 -10 33 -21 -34 -27 -316
-26 -163 0 -293 -3 -289 -7 4 -4 111 -8 239 -10 306 -3 466 -9 473 -16 10 -9
-36 -18 -91 -17 -169 3 -886 -8 -892 -13 -6 -6 752 -12 889 -7 71 2 127 -8
107 -21 -8 -5 -31 -9 -51 -9 -20 0 -39 -4 -42 -9 -10 -15 104 -22 244 -15 144
7 247 -1 218 -17 -8 -5 -69 -8 -134 -8 -161 0 -146 0 -769 -9 l-550 -8 501 -2
c509 -2 684 -8 684 -24 0 -10 60 -9 -655 -15 -330 -2 -629 -1 -664 2 -89 10
-65 27 45 33 64 3 82 7 69 14 -9 6 -35 7 -57 4 -22 -4 -57 -1 -81 6 -38 11
-39 13 -16 19 13 4 276 7 583 8 308 1 557 4 554 7 -4 3 -248 6 -544 6 -407 0
-546 3 -573 13 l-36 13 38 7 c42 8 41 15 -6 31 l-32 11 38 8 c41 8 49 22 15
27 -13 2 -23 8 -23 13 0 6 10 11 23 13 28 4 28 18 0 26 -37 9 -8 25 59 32 33
4 90 1 127 -5 51 -9 76 -9 109 0 l42 12 -30 13 c-33 14 -28 18 40 30 l40 7
-30 13 c-33 14 -28 18 40 30 l40 7 -30 12 -30 13 28 11 c16 6 36 11 45 11 12
0 13 3 4 12 -9 9 -59 11 -177 9 -104 -1 -165 2 -165 8 0 5 15 11 33 13 69 7
836 9 895 2z m1191 0 c49 -10 36 -24 -23 -24 -72 0 -105 12 -56 21 19 4 38 7
41 8 4 0 21 -2 38 -5z m-3066 -11 c-7 -2 -21 -2 -30 0 -10 3 -4 5 12 5 17 0
24 -2 18 -5z m44 1 c-3 -3 -12 -4 -19 -1 -8 3 -5 6 6 6 11 1 17 -2 13 -5z
m870 0 c-9 -9 -105 -12 -119 -3 -8 5 16 9 56 9 38 0 67 -3 63 -6z m216 -40
c43 -4 77 -10 77 -14 0 -4 -44 -9 -97 -12 -157 -9 -291 13 -158 25 76 7 102 7
178 1z m1969 -4 c11 0 16 -4 13 -10 -3 -5 -23 -10 -43 -10 -45 0 -72 -14 -47
-24 9 -3 34 -6 56 -6 54 0 49 -16 -7 -24 -74 -10 -119 -7 -140 9 -18 14 -18
14 11 15 40 0 63 15 40 24 -9 3 -25 6 -36 6 -10 0 -19 4 -19 9 0 13 54 20 109
15 24 -2 52 -4 63 -4z m-2242 -10 c0 -5 -20 -10 -44 -10 -25 0 -48 5 -51 10
-4 6 13 10 44 10 28 0 51 -4 51 -10z m283 -49 c5 -5 -26 -12 -67 -16 -85 -8
-246 3 -246 16 0 18 295 18 313 0z m-323 -1 c0 -5 -18 -10 -40 -10 -22 0 -40
5 -40 10 0 6 18 10 40 10 22 0 40 -4 40 -10z m245 -38 c75 -10 39 -24 -76 -30
-103 -5 -178 3 -163 18 16 16 157 23 239 12z m1399 -10 c6 -4 -2 -9 -19 -13
-39 -9 -318 -11 -339 -3 -21 8 -20 21 2 28 24 7 342 -3 356 -12z m656 1 c26
-10 -30 -21 -112 -22 -78 -1 -108 4 -108 19 0 5 15 11 33 13 38 5 165 -2 187
-10z m-2347 -10 c-13 -2 -35 -2 -50 0 -16 2 -5 4 22 4 28 0 40 -2 28 -4z
m1680 -40 c21 -13 -36 -21 -157 -22 -66 -1 -116 -4 -113 -7 4 -4 57 -8 119
-10 62 -2 124 -7 138 -10 49 -12 -10 -23 -132 -23 -72 -1 -118 -5 -118 -11 0
-6 46 -10 118 -10 113 0 168 -10 126 -24 -32 -10 -256 -8 -309 2 -28 5 -39 10
-25 11 37 2 70 12 70 21 0 5 -24 12 -52 17 l-53 9 48 8 c26 4 47 11 47 16 0 5
-24 12 -52 16 l-53 7 45 12 c47 13 332 11 353 -2z m671 0 c38 -11 -8 -23 -91
-23 -46 0 -83 -3 -83 -7 0 -5 42 -9 92 -11 51 -2 97 -6 101 -9 18 -11 -20 -23
-76 -23 -36 0 -56 -4 -52 -10 3 -5 32 -10 63 -10 60 0 94 -12 72 -25 -6 -4
-65 -7 -131 -7 -65 0 -122 -4 -125 -9 -3 -5 48 -9 118 -10 120 0 181 -10 148
-23 -8 -3 -78 -10 -155 -14 l-140 -9 135 -3 c136 -2 199 -11 170 -24 -8 -3
-85 -10 -170 -15 l-155 -8 150 -2 c145 -2 209 -11 175 -25 -8 -3 -78 -9 -155
-14 l-140 -7 144 -8 c80 -4 147 -10 150 -12 12 -13 -21 -17 -200 -23 l-194 -7
189 -8 c104 -4 192 -10 195 -12 14 -14 -25 -20 -157 -25 l-147 -5 135 -8 c74
-5 144 -11 155 -14 18 -6 18 -7 -5 -14 -14 -4 -74 -8 -135 -9 -87 -2 -102 -4
-70 -11 22 -4 79 -8 127 -8 88 -1 123 -14 67 -25 -18 -3 -91 -7 -163 -7 -149
-1 -116 -16 41 -18 118 -2 162 -15 86 -26 -62 -8 -68 -20 -15 -30 36 -7 36 -8
12 -17 -14 -6 -126 -12 -249 -14 -124 -2 -227 -7 -230 -9 -2 -3 94 -5 215 -6
253 -1 303 -9 199 -35 l-30 -7 33 -10 c86 -27 5 -37 -289 -37 -125 0 -234 3
-243 6 -27 11 -18 22 27 32 36 9 39 11 20 17 -35 11 -27 24 17 31 41 7 56 24
20 24 -31 0 -24 20 10 27 33 6 51 23 25 23 -27 0 -11 25 18 28 30 4 35 17 11
26 -22 8 -7 26 22 26 27 0 32 15 7 24 -31 12 2 27 83 35 l79 8 -60 2 c-67 1
-104 15 -70 26 11 4 29 11 40 15 19 9 19 9 -2 16 -35 10 -27 21 20 29 l42 7
-29 13 c-31 13 -26 21 22 35 27 8 27 9 5 15 -32 10 -28 22 9 30 30 7 31 8 12
22 -16 12 -17 15 -4 23 8 5 23 10 33 10 25 0 21 17 -5 24 -19 5 -21 8 -8 16 8
5 25 10 38 10 30 0 28 16 -3 24 -33 8 -23 26 15 26 38 0 47 16 13 24 -29 8
-21 22 17 29 28 6 175 -1 204 -10z m-2364 -9 c0 -2 -17 -4 -37 -3 -33 1 -35 2
-13 8 23 7 50 4 50 -5z m-10 -50 c-36 -8 -100 -9 -100 -2 0 5 26 7 58 7 31 -1
50 -3 42 -5z m1278 -1 c-10 -2 -26 -2 -35 0 -10 3 -2 5 17 5 19 0 27 -2 18 -5z
m402 -93 c21 -13 3 -17 -110 -24 -107 -6 -255 13 -190 25 56 10 284 10 300 -1z
m-41 -96 c17 -4 31 -10 31 -14 0 -9 -168 -18 -211 -12 -32 5 -38 18 -11 25 27
7 156 8 191 1z m-2496 -11 c-7 -2 -19 -2 -25 0 -7 3 -2 5 12 5 14 0 19 -2 13
-5z m257 -53 c0 -5 -5 -10 -11 -10 -5 0 -7 5 -4 10 3 6 8 10 11 10 2 0 4 -4 4
-10z m-147 -107 c-13 -2 -35 -2 -50 0 -16 2 -5 4 22 4 28 0 40 -2 28 -4z m70
0 c-7 -2 -21 -2 -30 0 -10 3 -4 5 12 5 17 0 24 -2 18 -5z m2301 -42 c10 -16
-28 -22 -94 -15 -55 7 -60 9 -35 15 45 10 123 10 129 0z m-2277 -7 c-3 -3 -12
-4 -19 -1 -8 3 -5 6 6 6 11 1 17 -2 13 -5z m3 -54 c-20 -13 -77 -13 -85 0 -4
6 14 10 47 10 38 0 49 -3 38 -10z m2347 4 c-3 -3 -12 -4 -19 -1 -8 3 -5 6 6 6
11 1 17 -2 13 -5z m-2564 -51 c-7 -2 -19 -2 -25 0 -7 3 -2 5 12 5 14 0 19 -2
13 -5z m2594 -49 c-3 -3 -12 -4 -19 -1 -8 3 -5 6 6 6 11 1 17 -2 13 -5z m-110
-150 c-3 -3 -12 -4 -19 -1 -8 3 -5 6 6 6 11 1 17 -2 13 -5z m56 -61 c-13 -2
-35 -2 -50 0 -16 2 -5 4 22 4 28 0 40 -2 28 -4z"/>
<path d="M3240 5173 c0 -12 68 -14 75 -3 4 6 -10 10 -34 10 -23 0 -41 -3 -41
-7z"/>
<path d="M3245 5119 c-4 -5 20 -9 56 -9 34 0 60 3 57 6 -10 10 -107 13 -113 3z"/>
<path d="M3153 4813 c9 -2 25 -2 35 0 9 3 1 5 -18 5 -19 0 -27 -2 -17 -5z"/>
<path d="M5238 3373 c7 -3 16 -2 19 1 4 3 -2 6 -13 5 -11 0 -14 -3 -6 -6z"/>
<path d="M4530 3436 c0 -2 7 -6 15 -10 8 -3 15 -1 15 4 0 6 -7 10 -15 10 -8 0
-15 -2 -15 -4z"/>
<path d="M4678 3428 c-8 -4 12 -8 45 -8 33 0 57 4 57 10 0 12 -83 11 -102 -2z"/>
<path d="M3975 3080 c-85 -7 -86 -8 -15 -16 120 -13 234 -2 184 17 -21 8 -52
8 -169 -1z"/>
<path d="M3978 3033 c-38 -2 -68 -8 -68 -13 0 -9 75 -16 125 -12 11 1 77 2
148 2 75 0 127 5 127 10 0 6 -44 10 -104 10 -57 0 -116 2 -132 3 -16 2 -59 2
-96 0z"/>
<path d="M3958 2983 c-32 -2 -58 -8 -58 -12 0 -12 74 -18 124 -11 38 5 40 6
19 18 -12 7 -23 11 -25 10 -2 -1 -29 -3 -60 -5z"/>
<path d="M5940 3020 c0 -5 14 -10 30 -10 17 0 30 5 30 10 0 6 -13 10 -30 10
-16 0 -30 -4 -30 -10z"/>
<path d="M5853 2813 c9 -2 23 -2 30 0 6 3 -1 5 -18 5 -16 0 -22 -2 -12 -5z"/>
<path d="M5783 2663 c26 -2 67 -2 90 0 23 2 2 3 -48 3 -49 0 -68 -1 -42 -3z"/>
<path d="M5715 2610 c3 -5 15 -10 25 -10 10 0 22 5 25 10 4 6 -7 10 -25 10
-18 0 -29 -4 -25 -10z"/>
<path d="M5670 2560 c-10 -7 19 -10 89 -10 57 0 102 2 100 4 -11 9 -176 15
-189 6z"/>
<path d="M5945 2560 c-4 -6 13 -10 44 -10 28 0 51 5 51 10 0 6 -20 10 -44 10
-25 0 -48 -4 -51 -10z"/>
<path d="M5898 2553 c6 -2 18 -2 25 0 6 3 1 5 -13 5 -14 0 -19 -2 -12 -5z"/>
<path d="M5755 2460 l-170 -6 210 -1 c125 -1 202 2 190 7 -11 5 -29 8 -40 7
-11 -1 -96 -4 -190 -7z"/>
<path d="M1528 3893 c7 -3 16 -2 19 1 4 3 -2 6 -13 5 -11 0 -14 -3 -6 -6z"/>
<path d="M1530 3590 c-9 -6 -2 -11 23 -15 32 -6 77 0 66 9 -10 9 -77 13 -89 6z"/>
<path d="M1283 3583 c15 -2 39 -2 55 0 15 2 2 4 -28 4 -30 0 -43 -2 -27 -4z"/>
<path d="M1228 3533 c7 -3 16 -2 19 1 4 3 -2 6 -13 5 -11 0 -14 -3 -6 -6z"/>
<path d="M1585 3530 c3 -5 17 -10 31 -10 13 0 24 5 24 10 0 6 -14 10 -31 10
-17 0 -28 -4 -24 -10z"/>
<path d="M2537 3533 c18 -2 50 -2 70 0 21 2 7 4 -32 4 -38 0 -55 -2 -38 -4z"/>
<path d="M2668 3533 c12 -2 30 -2 40 0 9 3 -1 5 -23 4 -22 0 -30 -2 -17 -4z"/>
<path d="M2028 3494 c-32 -9 -19 -23 28 -30 66 -10 139 4 120 23 -8 9 -124 14
-148 7z"/>
<path d="M1620 3480 c0 -5 11 -10 25 -10 14 0 25 5 25 10 0 6 -11 10 -25 10
-14 0 -25 -4 -25 -10z"/>
<path d="M2566 3480 c7 -7 32 -8 75 -2 l64 10 -74 1 c-52 1 -72 -2 -65 -9z"/>
<path d="M2033 3443 c-22 -8 -14 -20 18 -27 30 -6 32 -26 3 -26 -8 0 -14 -4
-14 -9 0 -14 57 -24 98 -16 35 6 36 8 17 21 -10 8 -30 14 -44 15 -18 1 -13 4
17 11 70 16 48 39 -36 37 -26 0 -53 -3 -59 -6z"/>
<path d="M1645 3430 c3 -5 17 -10 31 -10 13 0 24 5 24 10 0 6 -14 10 -31 10
-17 0 -28 -4 -24 -10z"/>
<path d="M2590 3430 c0 -6 29 -10 66 -10 41 0 63 4 59 10 -3 6 -33 10 -66 10
-33 0 -59 -4 -59 -10z"/>
<path d="M1680 3380 c0 -5 12 -10 26 -10 14 0 23 4 19 10 -3 6 -15 10 -26 10
-10 0 -19 -4 -19 -10z"/>
<path d="M2078 3343 c-10 -2 -18 -8 -18 -13 0 -19 73 -27 100 -10 11 7 9 11
-13 19 -29 11 -40 12 -69 4z"/>
<path d="M1705 3330 c-4 -6 6 -10 22 -10 22 0 25 2 13 10 -19 12 -27 12 -35 0z"/>
<path d="M2098 3293 c-37 -10 -11 -33 37 -33 35 0 40 18 10 30 -14 6 -27 9
-28 9 -1 -1 -10 -3 -19 -6z"/>
<path d="M1733 3273 c9 -2 25 -2 35 0 9 3 1 5 -18 5 -19 0 -27 -2 -17 -5z"/>
<path d="M2116 3231 c-3 -5 1 -12 10 -15 21 -8 56 3 49 15 -8 12 -52 12 -59 0z"/>
<path d="M1753 3223 c9 -2 23 -2 30 0 6 3 -1 5 -18 5 -16 0 -22 -2 -12 -5z"/>
<path d="M2158 3173 c7 -3 16 -2 19 1 4 3 -2 6 -13 5 -11 0 -14 -3 -6 -6z"/>
<path d="M968 3123 c6 -2 18 -2 25 0 6 3 1 5 -13 5 -14 0 -19 -2 -12 -5z"/>
<path d="M978 3073 c6 -2 18 -2 25 0 6 3 1 5 -13 5 -14 0 -19 -2 -12 -5z"/>
<path d="M2598 3073 c12 -2 32 -2 45 0 12 2 2 4 -23 4 -25 0 -35 -2 -22 -4z"/>
<path d="M2708 3073 c6 -2 18 -2 25 0 6 3 1 5 -13 5 -14 0 -19 -2 -12 -5z"/>
<path d="M2564 3022 c7 -12 166 -14 166 -2 0 6 -34 10 -86 10 -47 0 -83 -4
-80 -8z"/>
<path d="M1818 2963 c6 -2 18 -2 25 0 6 3 1 5 -13 5 -14 0 -19 -2 -12 -5z"/>
<path d="M1805 2920 c-4 -6 7 -10 27 -10 25 0 29 3 18 10 -19 13 -37 13 -45 0z"/>
<path d="M1819 2869 c-10 -6 -7 -9 14 -9 29 0 35 5 14 13 -8 3 -20 1 -28 -4z"/>
<path d="M1819 2819 c-10 -6 -7 -9 14 -9 29 0 35 5 14 13 -8 3 -20 1 -28 -4z"/>
<path d="M3600 2771 l-95 -6 140 -9 c150 -10 201 -9 217 0 6 4 5 10 -3 15 -15
9 -100 9 -259 0z"/>
<path d="M1805 2760 c3 -5 12 -10 20 -10 8 0 17 5 20 10 4 6 -5 10 -20 10 -15
0 -24 -4 -20 -10z"/>
<path d="M3393 2763 c20 -2 54 -2 75 0 20 2 3 4 -38 4 -41 0 -58 -2 -37 -4z"/>
<path d="M3530 2720 l-225 -5 235 -8 c276 -10 297 -10 318 -2 29 11 -8 25 -58
23 -25 -1 -146 -5 -270 -8z"/>
<path d="M1775 2710 c3 -5 22 -10 41 -10 19 0 34 5 34 10 0 6 -18 10 -41 10
-24 0 -38 -4 -34 -10z"/>
<path d="M1765 2673 c-46 -11 -37 -23 19 -23 42 0 57 3 54 13 -5 13 -41 18
-73 10z"/>
<path d="M3495 2670 l-260 -5 260 -7 c143 -3 269 -10 279 -14 19 -7 19 -8 0
-15 -10 -4 -47 -8 -82 -8 -35 -1 -61 -5 -58 -9 7 -11 161 -22 199 -15 34 7 35
19 2 27 -29 7 -24 26 6 26 10 0 19 4 19 9 0 14 -28 21 -68 19 -20 -1 -154 -5
-297 -8z"/>
<path d="M1718 2623 c-47 -5 -49 -19 -5 -26 66 -10 152 8 111 24 -20 8 -44 8
-106 2z"/>
<path d="M3204 2611 c7 -11 95 -11 102 1 3 4 -20 8 -51 8 -31 0 -54 -4 -51 -9z"/>
<path d="M3383 2613 c26 -2 68 -2 95 0 26 2 4 3 -48 3 -52 0 -74 -1 -47 -3z"/>
<path d="M3540 2610 c20 -13 67 -13 75 0 4 6 -12 10 -42 10 -35 0 -44 -3 -33
-10z"/>
<path d="M1673 2571 c-65 -11 -61 -19 11 -26 68 -8 136 0 136 14 0 21 -61 26
-147 12z"/>
<path d="M3690 2571 c-41 -3 -150 -6 -242 -6 -93 0 -168 -3 -168 -7 0 -7 385
-15 523 -11 46 1 66 7 55 18 -9 10 -94 13 -168 6z"/>
<path d="M3210 2560 c0 -5 7 -10 16 -10 8 0 12 5 9 10 -3 6 -10 10 -16 10 -5
0 -9 -4 -9 -10z"/>
<path d="M973 2553 c9 -2 23 -2 30 0 6 3 -1 5 -18 5 -16 0 -22 -2 -12 -5z"/>
<path d="M960 2510 c-16 -5 6 -8 65 -8 59 0 81 3 65 8 -14 4 -43 8 -65 8 -22
0 -51 -4 -65 -8z"/>
<path d="M1540 2510 c-11 -7 -6 -10 20 -10 19 0 77 -2 129 -4 95 -4 121 -1
121 15 0 12 -251 11 -270 -1z"/>
<path d="M950 2460 c-38 -6 -31 -7 45 -10 50 -1 106 -4 125 -7 19 -2 64 -1
100 3 l65 8 -50 7 c-62 9 -225 8 -285 -1z"/>
<path d="M1400 2461 l-45 -7 60 -7 c33 -3 125 -5 205 -3 188 5 180 4 180 16 0
11 -323 12 -400 1z"/>
<path d="M950 2411 l-75 -6 120 -7 c152 -9 735 -11 769 -2 74 18 -18 24 -362
22 -207 -1 -411 -4 -452 -7z"/>
<path d="M2995 2410 c-82 -5 -75 -6 75 -11 164 -6 194 -4 169 12 -13 8 -88 8
-244 -1z"/>
<path d="M6178 2403 c12 -2 30 -2 40 0 9 3 -1 5 -23 4 -22 0 -30 -2 -17 -4z"/>
<path d="M940 2360 l-105 -5 100 -6 c160 -9 819 -10 833 0 11 6 10 10 -4 15
-19 7 -649 4 -824 -4z"/>
<path d="M2075 2360 l-30 -7 25 -6 c14 -4 50 -3 80 2 46 7 49 9 18 10 -20 0
-42 3 -50 5 -7 2 -26 0 -43 -4z"/>
<path d="M3035 2360 l-170 -5 200 -6 c110 -3 204 -3 209 0 13 6 -24 20 -49 18
-11 -1 -96 -4 -190 -7z"/>
<path d="M6180 2360 l-45 -5 45 -7 c46 -7 55 -5 49 9 -2 4 -24 6 -49 3z"/>
<path d="M2705 2320 c-11 -5 -164 -9 -340 -9 -431 0 -419 0 -411 -8 4 -4 175
-8 379 -9 205 -1 389 -2 409 -2 21 -1 48 2 60 7 21 8 20 9 -12 15 -19 4 -42 9
-50 11 -8 2 -24 -1 -35 -5z"/>
<path d="M1170 2310 l-355 -5 185 -8 c244 -11 747 -5 740 8 -6 11 -72 12 -570
5z"/>
<path d="M3229 2308 c-21 -5 -21 -6 -4 -8 18 -1 468 -9 544 -10 39 0 80 18 46
21 -69 5 -567 3 -586 -3z"/>
<path d="M5790 2310 l-215 -5 240 -6 c132 -3 244 -4 249 -1 13 7 -16 22 -39
20 -11 -1 -117 -5 -235 -8z"/>
<path d="M2928 2303 c50 -2 134 -2 185 0 50 1 9 3 -93 3 -102 0 -143 -2 -92
-3z"/>
<path d="M6125 2299 c56 -11 105 -11 105 1 0 6 -30 10 -72 9 -66 -1 -69 -2
-33 -10z"/>
<path d="M1235 2260 c-245 -3 -406 -8 -375 -12 72 -10 846 -12 861 -3 15 10
-9 25 -36 23 -11 -2 -213 -5 -450 -8z"/>
<path d="M2415 2260 l-270 -5 300 -6 c165 -3 304 -3 309 -1 13 7 -24 21 -49
19 -11 -1 -141 -4 -290 -7z"/>
<path d="M3440 2260 l-275 -5 315 -7 c173 -3 319 -3 324 0 14 8 -25 21 -59 19
-16 -1 -154 -4 -305 -7z"/>
<path d="M5957 2263 c-36 -6 -24 -23 16 -23 29 0 78 19 50 20 -6 0 -17 2 -25
3 -7 2 -25 2 -41 0z"/>
<path d="M1810 2250 c-17 -11 13 -14 118 -10 118 4 124 18 7 19 -60 0 -117 -4
-125 -9z"/>
<path d="M2068 2253 c6 -2 18 -2 25 0 6 3 1 5 -13 5 -14 0 -19 -2 -12 -5z"/>
<path d="M2794 2253 c7 -7 108 -5 115 3 2 2 -24 4 -59 4 -35 0 -60 -3 -56 -7z"/>
<path d="M2958 2253 c12 -2 30 -2 40 0 9 3 -1 5 -23 4 -22 0 -30 -2 -17 -4z"/>
<path d="M3047 2253 c18 -2 50 -2 70 0 21 2 7 4 -32 4 -38 0 -55 -2 -38 -4z"/>
<path d="M5633 2254 c6 -7 279 -6 286 1 2 3 -62 5 -144 5 -82 0 -146 -3 -142
-6z"/>
<path d="M6063 2253 c9 -2 25 -2 35 0 9 3 1 5 -18 5 -19 0 -27 -2 -17 -5z"/>
<path d="M6130 2250 c20 -13 100 -13 100 0 0 6 -26 10 -57 10 -41 0 -54 -3
-43 -10z"/>
<path d="M1225 2210 c-214 -3 -375 -8 -356 -12 18 -5 190 -8 382 -8 192 0 349
-4 349 -9 0 -16 -107 -21 -472 -21 -214 0 -368 -4 -368 -9 0 -13 164 -17 593
-15 230 1 383 6 389 12 6 6 -9 12 -44 17 l-53 8 85 10 c47 5 286 10 532 10
247 1 448 5 448 10 0 4 -183 8 -407 9 -225 0 -471 1 -548 2 -77 1 -315 -1
-530 -4z"/>
<path d="M3350 2210 c-201 -3 -360 -7 -355 -8 6 -2 170 -5 365 -7 195 -3 367
-5 381 -6 15 -1 35 2 45 6 17 7 17 8 -6 15 -14 5 -34 7 -45 7 -11 -1 -184 -4
-385 -7z"/>
<path d="M5450 2212 c-57 -11 -19 -23 84 -25 84 -2 118 4 105 17 -8 9 -154 14
-189 8z"/>
<path d="M2735 2200 c8 -13 35 -13 55 0 11 7 5 10 -23 10 -23 0 -36 -4 -32
-10z"/>
<path d="M2913 2203 c9 -2 25 -2 35 0 9 3 1 5 -18 5 -19 0 -27 -2 -17 -5z"/>
<path d="M5728 2203 c28 -2 76 -2 105 0 28 2 5 3 -53 3 -58 0 -81 -1 -52 -3z"/>
<path d="M6060 2200 c37 -12 170 -12 170 0 0 6 -39 10 -97 9 -65 -1 -89 -4
-73 -9z"/>
<path d="M3628 2163 c-49 -2 -88 -8 -88 -13 0 -14 226 -18 239 -4 16 15 -38
22 -151 17z"/>
<path d="M5140 2160 c-41 -3 -66 -7 -55 -9 11 -1 38 -5 60 -8 48 -7 156 -6
163 2 18 17 -64 25 -168 15z"/>
<path d="M5490 2161 c-75 -8 -54 -17 60 -25 89 -6 166 3 144 16 -16 10 -146
16 -204 9z"/>
<path d="M1840 2150 c16 -11 1288 -15 1277 -4 -3 4 -295 8 -649 10 -424 3
-638 1 -628 -6z"/>
<path d="M3810 2148 c0 -5 151 -8 337 -8 185 0 333 3 329 7 -9 9 -666 10 -666
1z"/>
<path d="M4505 2150 c-4 -6 36 -10 114 -10 69 0 122 4 126 10 4 6 -36 10 -114
10 -69 0 -122 -4 -126 -10z"/>
<path d="M4785 2150 c-4 -6 18 -10 59 -10 37 0 66 4 66 10 0 6 -26 10 -59 10
-33 0 -63 -4 -66 -10z"/>
<path d="M4920 2150 c0 -6 27 -10 60 -10 33 0 60 4 60 10 0 6 -27 10 -60 10
-33 0 -60 -4 -60 -10z"/>
<path d="M5335 2150 c-4 -6 13 -10 45 -10 32 0 49 4 45 10 -3 6 -24 10 -45 10
-21 0 -42 -4 -45 -10z"/>
<path d="M5755 2150 c3 -5 32 -10 63 -9 41 0 51 3 37 9 -29 12 -108 12 -100 0z"/>
<path d="M5920 2150 c0 -5 7 -10 15 -10 8 0 15 5 15 10 0 6 -7 10 -15 10 -8 0
-15 -4 -15 -10z"/>
<path d="M6010 2149 c0 -5 50 -9 110 -9 69 0 110 4 110 10 0 7 -40 10 -110 9
-60 -1 -110 -6 -110 -10z"/>
<path d="M3358 2143 c23 -2 59 -2 80 0 20 2 1 4 -43 4 -44 0 -61 -2 -37 -4z"/>
<path d="M963 2110 c-349 -9 -213 -20 228 -19 264 1 409 5 369 10 -91 11 -370
15 -597 9z"/>
<path d="M3695 2115 c-5 -2 -37 -7 -70 -11 l-60 -8 70 -7 c39 -4 88 -5 110 -1
l40 5 -30 13 c-31 13 -42 15 -60 9z"/>
<path d="M4775 2108 c-98 -12 -101 -16 -15 -19 95 -4 130 -2 137 5 18 18 -41
24 -122 14z"/>
<path d="M5165 2109 c-22 -4 -84 -7 -137 -6 -54 0 -100 -2 -104 -6 -12 -11
323 -12 335 -1 15 14 -47 23 -94 13z"/>
<path d="M5609 2116 c-3 -3 -77 -8 -165 -12 -87 -3 -160 -7 -162 -8 -1 -2 97
-5 218 -9 201 -5 290 0 265 15 -14 8 -150 20 -156 14z"/>
<path d="M6055 2101 c-3 -6 33 -11 85 -13 67 -2 90 0 90 10 0 15 -165 18 -175
3z"/>
<path d="M2142 2093 c258 -2 678 -2 935 0 258 1 47 2 -467 2 -514 0 -725 -1
-468 -2z"/>
<path d="M4023 2093 c120 -2 314 -2 430 0 117 1 19 2 -218 2 -236 0 -332 -1
-212 -2z"/>
<path d="M5848 2093 c12 -2 32 -2 45 0 12 2 2 4 -23 4 -25 0 -35 -2 -22 -4z"/>
<path d="M5948 2093 c18 -2 45 -2 60 0 15 2 0 4 -33 4 -33 0 -45 -2 -27 -4z"/>
<path d="M3645 2059 c-22 -5 -661 -8 -1420 -8 -759 1 -1411 0 -1450 -2 -38 -2
605 -6 1430 -9 825 -3 1511 -2 1525 1 13 3 20 8 15 11 -22 12 -62 15 -100 7z"/>
<path d="M5595 2060 c-38 -4 -135 -9 -215 -10 -122 -3 -101 -5 135 -11 276 -8
346 -6 315 10 -23 13 -158 19 -235 11z"/>
<path d="M4230 2050 l-465 -5 555 -6 c305 -3 561 -4 568 -1 6 2 12 8 12 13 0
5 -46 8 -102 7 -57 -2 -312 -5 -568 -8z"/>
<path d="M5020 2050 c-104 -6 -104 -6 50 -8 103 -1 150 2 140 8 -8 5 -31 9
-50 8 -19 -1 -82 -5 -140 -8z"/>
<path d="M5985 2050 c-62 -6 -56 -7 55 -8 69 -1 135 -5 147 -8 45 -12 10 -24
-70 -24 -87 0 -146 -18 -72 -22 22 -1 54 -2 70 -3 17 -1 43 -2 58 -3 16 -1 25
-6 22 -12 -8 -13 -332 -13 -340 -1 -3 5 21 13 52 17 l58 8 -43 7 c-62 12 -153
12 -602 2 l-405 -9 365 -3 c201 -2 381 -4 400 -5 19 -1 60 -3 90 -4 42 -2 51
-5 42 -14 -9 -9 -132 -13 -459 -17 l-448 -6 486 -6 c454 -6 589 -14 464 -30
-27 -4 -545 -7 -1150 -7 -605 0 -1761 -1 -2569 -1 -808 -1 -1467 -4 -1464 -7
4 -3 1191 -7 2640 -8 2476 -3 2876 -8 2633 -29 -44 -4 -591 -7 -1215 -7 -2714
2 -4083 0 -4077 -6 3 -3 1222 -7 2709 -9 1544 -2 2722 -7 2748 -12 l45 -9 -55
-7 c-30 -4 -174 -8 -320 -9 l-265 -1 250 -8 c138 -4 288 -11 335 -15 l85 -8
-60 -7 c-33 -4 -108 -7 -167 -8 -59 -1 -110 -5 -113 -11 -4 -6 34 -10 107 -11
62 0 122 -4 133 -8 46 -19 -103 -25 -647 -25 -313 -1 -568 -4 -568 -8 0 -5
260 -8 578 -9 317 -1 588 -4 602 -8 l25 -7 -30 -10 c-18 -5 -381 -9 -880 -10
-1180 -1 -1569 -3 -1563 -9 3 -3 533 -5 1179 -5 646 0 1203 -3 1239 -7 l65 -7
-40 -9 c-23 -6 -402 -11 -900 -12 -1285 -2 -1579 -4 -1573 -11 3 -3 527 -5
1164 -4 638 0 1202 -3 1254 -7 l95 -7 -80 -11 c-44 -7 -108 -10 -141 -7 -34 2
-88 1 -120 -3 -57 -8 -58 -8 -24 -16 19 -4 94 -7 167 -6 91 0 137 -3 145 -11
9 -9 -2 -12 -47 -13 -64 0 -106 -11 -88 -22 37 -23 333 -14 333 9 0 10 -15 14
-49 14 -28 0 -53 5 -56 10 -4 6 15 10 49 10 43 0 56 3 56 15 0 9 -9 15 -25 15
-14 0 -25 5 -25 10 0 6 11 10 25 10 l24 0 0 245 0 245 -87 -2 c-48 -1 -118 -4
-157 -8z m190 -130 c-4 -6 -55 -10 -121 -10 -69 0 -114 4 -114 10 0 6 47 10
121 10 77 0 118 -4 114 -10z m-20 -50 c4 -6 -10 -10 -35 -10 -25 0 -39 4 -35
10 3 6 19 10 35 10 16 0 32 -4 35 -10z m33 -207 c-10 -2 -26 -2 -35 0 -10 3
-2 5 17 5 19 0 27 -2 18 -5z"/>
<path d="M3635 2009 c-22 -5 -647 -8 -1390 -8 -742 1 -1397 0 -1455 -2 -58 -2
575 -6 1405 -9 831 -3 1517 -2 1525 2 11 5 8 9 -13 17 -16 6 -29 10 -30 10 -1
-1 -20 -5 -42 -10z"/>
<path d="M4180 2000 l-425 -5 559 -7 c307 -3 565 -4 572 -1 40 15 -13 23 -139
21 -78 -2 -333 -5 -567 -8z"/>
<path d="M810 1950 l-135 -6 115 -3 c193 -5 2924 -1 2929 4 2 3 -2 5 -10 5 -8
0 -633 1 -1389 2 -756 2 -1436 1 -1510 -2z"/>
<path d="M4140 1950 l-405 -5 568 -7 c312 -4 575 -4 583 -1 40 15 -22 23 -176
21 -91 -2 -347 -5 -570 -8z"/>
<path d="M3558 1803 c-16 -2 -28 -8 -28 -12 0 -12 52 -21 81 -15 49 11 55 16
29 24 -27 9 -41 9 -82 3z"/>
<path d="M4592 1803 c-116 -2 -181 -7 -177 -13 8 -13 442 -14 449 -1 6 9 -46
23 -73 19 -9 -2 -98 -4 -199 -5z"/>
<path d="M695 1789 c39 -8 1246 -2 1254 7 2 2 -288 3 -645 3 -392 -1 -633 -5
-609 -10z"/>
<path d="M2715 1790 c396 -3 738 -2 760 1 22 4 -302 6 -720 5 l-760 -1 720 -5z"/>
<path d="M3680 1793 c0 -7 627 -6 695 1 17 1 -133 4 -332 4 -200 1 -363 -1
-363 -5z"/>
<path d="M4883 1794 c7 -7 597 -7 605 0 3 3 -133 6 -303 6 -170 0 -306 -3
-302 -6z"/>
<path d="M3533 1753 c-18 -2 -33 -8 -33 -12 0 -12 59 -20 98 -14 30 5 46 23
20 23 -7 0 -22 2 -33 4 -11 2 -35 1 -52 -1z"/>
<path d="M4588 1752 c-132 -1 -208 -6 -208 -12 0 -13 1058 -11 1066 2 3 5
-131 8 -308 8 -173 -1 -320 0 -328 2 -8 2 -108 2 -222 0z"/>
<path d="M660 1740 c0 -7 417 -10 1350 -9 743 1 1350 5 1350 9 0 5 -607 9
-1350 10 -933 0 -1350 -3 -1350 -10z"/>
<path d="M3395 1740 c3 -5 15 -10 25 -10 10 0 22 5 25 10 4 6 -7 10 -25 10
-18 0 -29 -4 -25 -10z"/>
<path d="M3650 1740 c0 -6 129 -10 360 -9 216 0 360 4 360 10 0 5 -144 9 -360
9 -231 0 -360 -4 -360 -10z"/>
<path d="M3515 1703 c-55 -7 -62 -16 -20 -24 44 -9 105 -2 105 12 0 5 -6 9
-14 9 -8 0 -20 2 -28 3 -7 2 -26 2 -43 0z"/>
<path d="M4788 1704 c-2 -1 -217 -5 -478 -9 -261 -3 -484 -7 -495 -8 -11 -1
205 -4 480 -7 501 -5 545 -4 545 10 0 7 -47 20 -52 14z"/>
<path d="M670 1689 c-25 -3 589 -7 1364 -7 775 -1 1407 0 1405 2 -7 7 -2722
12 -2769 5z"/>
<path d="M3649 1689 c-14 -4 9 -7 55 -8 44 -1 77 2 74 5 -9 8 -101 10 -129 3z"/>
<path d="M660 1639 c-36 -3 576 -6 1360 -6 784 0 1418 1 1410 3 -28 6 -2704 9
-2770 3z"/>
<path d="M3456 1641 c-4 -5 7 -12 23 -16 34 -7 101 3 101 16 0 12 -117 12
-124 0z"/>
<path d="M655 1589 c-33 -3 572 -6 1345 -7 773 0 1401 1 1395 3 -18 6 -2678
10 -2740 4z"/>
<path d="M3431 1591 c-10 -7 -5 -11 18 -16 38 -8 113 3 105 16 -7 12 -105 12
-123 0z"/>
<path d="M680 1540 l-125 -6 160 -2 c147 -3 4046 -5 4089 -3 11 1 16 4 13 8
-8 8 -3957 10 -4137 3z"/>
<path d="M5043 1533 c120 -2 314 -2 430 0 117 1 19 2 -218 2 -236 0 -332 -1
-212 -2z"/>
<path d="M805 1490 c-126 -3 -192 -7 -145 -9 67 -2 5143 -4 5199 -2 310 13
-4520 23 -5054 11z"/>
<path d="M1950 1440 c-784 -3 -1393 -7 -1355 -9 39 -3 678 -5 1420 -6 743 0
1361 -2 1375 -2 109 -5 2442 5 2447 10 3 4 -236 7 -533 7 -296 1 -852 2 -1234
3 -382 1 -1336 0 -2120 -3z"/>
<path d="M5875 1441 c-65 -14 3 -26 160 -27 174 -2 195 0 195 22 0 12 -28 14
-162 13 -90 -1 -176 -4 -193 -8z"/>
<path d="M3323 1392 c-18 -2 -33 -7 -33 -11 0 -15 63 -19 120 -9 34 6 300 8
707 5 382 -3 653 -1 653 4 0 5 -6 9 -12 9 -95 3 -1412 4 -1435 2z"/>
<path d="M5805 1391 l-80 -6 110 -12 c105 -12 365 -10 386 2 5 4 7 11 4 16 -6
9 -282 9 -420 0z"/>
<path d="M570 1379 c30 -4 647 -4 1370 0 l1315 8 -1370 0 c-753 0 -1345 -3
-1315 -8z"/>
<path d="M5013 1383 c126 -2 328 -2 450 0 122 1 20 2 -228 2 -247 0 -347 -1
-222 -2z"/>
<path d="M3248 1343 c-79 -4 -110 -21 -40 -21 20 -1 70 -2 110 -3 65 -2 93 3
81 15 -8 9 -76 12 -151 9z"/>
<path d="M4582 1343 c-140 -5 -103 -23 48 -23 126 0 176 11 102 24 -20 3 -41
5 -47 4 -5 -1 -52 -4 -103 -5z"/>
<path d="M5818 1343 c-78 -8 -24 -31 82 -34 30 -1 16 -4 -40 -10 -133 -13
-148 -20 -65 -34 l70 -11 -71 -8 c-83 -9 -108 -20 -69 -30 22 -6 25 -10 16
-19 -9 -9 -303 -13 -1224 -17 l-1212 -5 1220 -5 c1261 -5 1349 -4 1339 11 -3
5 -16 9 -29 9 -13 0 -26 4 -29 9 -7 11 75 20 204 23 58 1 85 3 60 5 -97 7
-150 15 -150 23 0 5 26 11 58 15 68 7 111 16 97 20 -5 2 -23 7 -40 11 l-30 7
25 7 c14 5 45 9 70 9 55 2 83 15 48 24 -24 7 -266 6 -330 0z"/>
<path d="M535 1330 c-7 -11 2571 -7 2582 4 4 3 -575 6 -1285 6 -864 0 -1293
-3 -1297 -10z"/>
<path d="M3425 1330 c8 -13 35 -13 55 0 11 7 5 10 -23 10 -23 0 -36 -4 -32
-10z"/>
<path d="M3511 1335 c3 -2 213 -7 467 -11 335 -4 462 -3 462 5 0 8 -132 11
-467 11 -256 0 -464 -2 -462 -5z"/>
<path d="M4790 1332 c0 -7 589 -5 635 2 11 2 -127 4 -307 5 -181 0 -328 -3
-328 -7z"/>
<path d="M5528 1333 c6 -2 18 -2 25 0 6 3 1 5 -13 5 -14 0 -19 -2 -12 -5z"/>
<path d="M5615 1330 c3 -5 24 -10 45 -10 21 0 42 5 45 10 4 6 -13 10 -45 10
-32 0 -49 -4 -45 -10z"/>
<path d="M3245 1293 c-61 -6 -75 -15 -35 -22 58 -10 1361 3 1310 13 -25 5
-290 7 -590 5 -300 -2 -567 -1 -595 2 -27 3 -68 4 -90 2z"/>
<path d="M515 1280 c-4 -7 457 -10 1321 -10 730 0 1325 3 1322 6 -11 10 -2637
14 -2643 4z"/>
<path d="M4610 1280 c-11 -7 -7 -10 17 -10 17 0 35 5 38 10 8 13 -35 13 -55 0z"/>
<path d="M4734 1279 c-3 -5 148 -9 342 -9 191 0 345 2 343 4 -9 8 -680 13
-685 5z"/>
<path d="M6160 1280 c0 -5 9 -10 20 -10 11 0 20 5 20 10 0 6 -9 10 -20 10 -11
0 -20 -4 -20 -10z"/>
<path d="M3230 1245 c-8 -2 -33 -7 -55 -11 l-40 -7 35 -8 c36 -8 294 0 285 9
-3 3 -36 6 -73 7 -37 1 -83 4 -102 7 -19 4 -42 5 -50 3z"/>
<path d="M515 1230 c-27 -4 548 -8 1279 -8 731 -1 1327 0 1325 2 -8 6 -2554
13 -2604 6z"/>
<path d="M4050 1230 c-444 -4 -319 -5 515 -6 605 0 1084 1 1065 3 -70 6 -1010
8 -1580 3z"/>
<path d="M6208 1223 c7 -3 16 -2 19 1 4 3 -2 6 -13 5 -11 0 -14 -3 -6 -6z"/>
<path d="M3150 1188 c-45 -6 -561 -8 -1305 -5 -676 2 -1275 1 -1330 -3 -55 -4
508 -8 1250 -9 743 -1 1368 -5 1390 -9 42 -8 125 5 125 20 0 4 -6 8 -14 8 -8
0 -20 2 -28 4 -7 2 -47 -1 -88 -6z"/>
<path d="M5972 1173 c37 -2 100 -2 140 0 40 1 10 3 -67 3 -77 0 -110 -1 -73
-3z"/>
<path d="M515 1130 c-199 -10 251 -13 1525 -11 635 1 1731 1 2434 1 704 0
1277 2 1275 4 -7 7 -5095 12 -5234 6z"/>
<path d="M5878 1123 c68 -2 176 -2 240 0 64 1 9 3 -123 3 -132 0 -185 -2 -117
-3z"/>
<path d="M585 1080 c-178 -5 -187 -6 -80 -9 167 -5 5719 0 5724 5 2 2 -686 4
-1530 4 -844 0 -2069 1 -2724 2 -655 2 -1280 1 -1390 -2z"/>
<path d="M3035 1039 c-22 -4 -631 -8 -1354 -8 -723 -1 -1311 -4 -1307 -9 4 -4
598 -7 1319 -8 722 0 1323 -1 1337 -1 14 -1 740 2 1615 6 l1590 6 -1557 3
c-856 1 -1567 6 -1580 10 -13 5 -41 5 -63 1z"/>
<path d="M2905 981 c-47 -5 -55 -8 -35 -13 14 -4 37 -8 52 -8 46 0 40 -17 -10
-24 -26 -3 -625 -6 -1332 -6 -921 0 -1280 -4 -1267 -11 13 -8 377 -9 1240 -5
764 4 1246 2 1287 -4 64 -9 180 -3 180 9 0 4 -12 12 -27 18 l-28 10 40 7 c65
12 72 15 55 26 -16 10 -57 10 -155 1z"/>
<path d="M335 969 c38 -8 2485 -1 2494 7 2 2 -567 3 -1265 3 -716 -1 -1252 -5
-1229 -10z"/>
<path d="M3783 973 c378 -2 996 -2 1375 0 378 1 68 2 -688 2 -756 0 -1066 -1
-687 -2z"/>
<path d="M5968 973 c28 -2 76 -2 105 0 28 2 5 3 -53 3 -58 0 -81 -1 -52 -3z"/>
<path d="M6208 973 c7 -3 16 -2 19 1 4 3 -2 6 -13 5 -11 0 -14 -3 -6 -6z"/>
<path d="M3063 924 c8 -8 2737 -7 2745 1 3 3 -615 5 -1373 5 -758 0 -1375 -3
-1372 -6z"/>
<path d="M5868 923 c18 -2 45 -2 60 0 15 2 0 4 -33 4 -33 0 -45 -2 -27 -4z"/>
<path d="M2808 881 c-76 -8 -81 -17 -13 -26 60 -7 185 3 185 15 0 8 -63 21
-95 18 -11 0 -46 -4 -77 -7z"/>
<path d="M310 870 c-10 -6 341 -10 1033 -10 616 0 1047 4 1047 9 0 13 -2061
14 -2080 1z"/>
<path d="M2430 870 c-10 -7 29 -10 118 -10 76 0 132 4 132 9 0 13 -231 13
-250 1z"/>
<path d="M3005 870 c-4 -7 250 -10 766 -10 425 0 769 3 765 7 -11 12 -1524 15
-1531 3z"/>
<path d="M4555 870 c-4 -6 33 -10 104 -10 67 0 111 4 111 10 0 6 -41 10 -104
10 -59 0 -108 -4 -111 -10z"/>
<path d="M4800 869 c0 -5 185 -9 412 -9 226 0 408 3 405 6 -10 10 -817 12
-817 3z"/>
<path d="M5680 870 c0 -5 24 -10 53 -10 37 0 48 3 37 10 -20 13 -90 13 -90 0z"/>
<path d="M2745 833 c-78 -5 -91 -19 -26 -28 65 -9 226 4 213 17 -12 12 -104
17 -187 11z"/>
<path d="M300 821 c-10 -7 349 -11 1159 -11 646 0 1172 2 1170 4 -10 11 -2314
17 -2329 7z"/>
<path d="M2963 818 c-2 -5 681 -8 1518 -8 837 0 1520 2 1517 5 -8 8 -3029 11
-3035 3z"/>
<path d="M6208 813 c7 -3 16 -2 19 1 4 3 -2 6 -13 5 -11 0 -14 -3 -6 -6z"/>
<path d="M2630 777 c-95 -10 -100 -12 -55 -17 28 -3 862 -3 1855 0 l1805 5
-1710 6 c-940 4 -1728 9 -1750 12 -22 2 -87 0 -145 -6z"/>
<path d="M295 770 c-79 -13 157 -15 1195 -10 l1035 5 -754 8 c-861 8 -1418 7
-1476 -3z"/>
<path d="M2565 729 c-60 -5 -569 -6 -1130 -2 -561 3 -1060 2 -1110 -3 l-90 -8
125 -7 c69 -4 566 -5 1105 -3 539 3 1006 2 1038 -1 44 -5 56 -10 47 -19 -8 -8
-292 -10 -1093 -8 -595 2 -1116 0 -1157 -4 -75 -8 -75 -8 -30 -15 51 -8 3770
-3 3778 6 3 3 -116 5 -264 6 -1115 3 -1179 4 -1199 16 -17 10 -6 13 65 13 103
2 184 13 155 22 -40 13 -133 15 -240 7z"/>
<path d="M3678 713 c468 -2 1236 -2 1705 0 468 1 85 2 -853 2 -938 0 -1321 -1
-852 -2z"/>
<path d="M4455 671 l-190 -6 125 -6 c69 -3 512 -3 985 1 l860 6 -736 2 c-405
1 -763 4 -795 5 -32 2 -144 1 -249 -2z"/>
<path d="M4178 663 c12 -2 32 -2 45 0 12 2 2 4 -23 4 -25 0 -35 -2 -22 -4z"/>
<path d="M295 620 l-60 -5 70 -7 c83 -9 1076 -8 1560 1 l340 7 -330 4 c-493 6
-1511 6 -1580 0z"/>
<path d="M2280 620 l-65 -5 68 -9 c38 -5 92 -7 120 -6 29 2 507 4 1062 4 1870
2 2768 6 2763 11 -7 7 -3864 12 -3948 5z"/>
<path d="M320 572 l-65 -7 60 -8 c71 -10 1165 -8 1475 2 159 6 50 8 -425 9
-352 1 -716 4 -810 6 -93 2 -199 1 -235 -2z"/>
<path d="M2120 571 l-115 -6 140 -11 c77 -7 154 -10 170 -7 17 3 365 8 775 12
l745 7 -555 2 c-305 1 -665 4 -800 6 -135 2 -297 1 -360 -3z"/>
<path d="M3898 563 c34 -2 88 -2 120 0 31 2 3 3 -63 3 -66 0 -92 -1 -57 -3z"/>
<path d="M4103 563 c9 -2 25 -2 35 0 9 3 1 5 -18 5 -19 0 -27 -2 -17 -5z"/>
<path d="M4173 563 c9 -2 23 -2 30 0 6 3 -1 5 -18 5 -16 0 -22 -2 -12 -5z"/>
<path d="M4248 563 c18 -2 45 -2 60 0 15 2 0 4 -33 4 -33 0 -45 -2 -27 -4z"/>
<path d="M4828 563 c261 -2 684 -2 940 0 257 1 44 2 -473 2 -517 0 -727 -1
-467 -2z"/>
<path d="M340 521 c-74 -5 -89 -8 -65 -14 37 -11 1374 -8 1470 2 41 5 -174 9
-515 11 -322 1 -632 3 -690 4 -58 1 -148 0 -200 -3z"/>
<path d="M2028 521 c-58 -3 -109 -9 -112 -12 -18 -18 492 -20 584 -2 l35 6
-40 8 c-45 9 -304 9 -467 0z"/>
<path d="M2552 514 c9 -9 1198 -10 1198 -1 0 4 -271 7 -602 7 -331 0 -599 -3
-596 -6z"/>
<path d="M3774 511 c21 -8 395 -5 404 3 3 3 -91 6 -209 5 -118 0 -206 -4 -195
-8z"/>
<path d="M4194 513 c8 -8 1267 -5 1275 2 2 3 -285 5 -639 5 -354 0 -640 -3
-636 -7z"/>
<path d="M5507 513 c18 -2 50 -2 70 0 21 2 7 4 -32 4 -38 0 -55 -2 -38 -4z"/>
<path d="M5628 513 c7 -3 16 -2 19 1 4 3 -2 6 -13 5 -11 0 -14 -3 -6 -6z"/>
<path d="M5703 513 c15 -2 37 -2 50 0 12 2 0 4 -28 4 -27 0 -38 -2 -22 -4z"/>
<path d="M368 472 c-123 -3 -169 -22 -53 -22 49 0 65 -3 65 -14 0 -10 -16 -15
-52 -18 -50 -4 -61 -2 -108 22 -11 6 -63 10 -115 10 l-95 0 0 -205 0 -205 453
-1 c248 0 539 0 645 0 149 0 193 -2 189 -12 -3 -9 -129 -13 -548 -15 -299 -1
-551 -4 -559 -6 -8 -2 273 -3 625 -3 352 1 612 2 578 4 -41 3 -63 8 -63 16 0
8 24 12 80 12 53 0 80 -4 80 -11 0 -14 23 -24 53 -24 21 1 21 1 3 15 -10 8
-23 12 -27 9 -5 -3 -9 0 -9 5 0 7 34 11 91 11 82 0 91 -2 96 -20 3 -11 10 -20
15 -20 6 0 8 6 5 14 -3 7 0 19 6 25 8 8 8 14 -1 23 -22 22 -12 28 53 28 63 0
65 -1 65 -25 0 -23 4 -25 45 -25 41 0 45 2 45 25 0 16 6 25 15 25 8 0 15 5 15
10 0 6 -6 10 -14 10 -10 0 -14 13 -14 45 l0 46 61 -3 c50 -2 62 -6 65 -20 3
-15 -5 -18 -52 -18 -31 0 -56 -3 -56 -7 0 -5 25 -8 54 -8 30 0 58 -4 61 -7 15
-14 -8 -28 -46 -28 -24 0 -38 -4 -34 -10 3 -5 19 -10 36 -10 30 0 34 -8 30
-63 -2 -26 -1 -27 48 -27 28 0 51 5 51 10 0 6 11 10 24 10 17 0 28 9 38 30 15
35 18 36 40 11 19 -23 12 -36 -10 -18 -13 10 -14 8 -9 -13 4 -14 4 -19 1 -12
-6 13 -24 7 -24 -9 0 -5 352 -9 922 -9 507 0 919 3 916 6 -5 5 -44 12 -76 13
-7 1 -11 5 -8 9 3 5 26 6 51 2 44 -7 45 -6 45 21 0 33 10 42 28 23 11 -12 10
-14 -3 -14 -8 0 -15 -5 -15 -11 0 -5 5 -7 10 -4 6 3 10 -4 10 -17 0 -19 -2
-20 -11 -8 -9 13 -10 13 -6 0 5 -22 122 -27 142 -6 19 19 19 21 -7 46 -17 15
-19 23 -10 32 6 6 13 10 14 7 2 -2 10 -17 18 -34 11 -21 24 -31 45 -33 17 -2
34 -10 38 -18 6 -10 30 -14 93 -14 l85 0 -2 28 c-2 15 -8 34 -15 42 -6 8 -14
27 -18 41 -5 22 -2 28 17 33 58 15 75 8 112 -49 34 -51 40 -55 75 -55 22 0 42
-5 45 -10 17 -27 20 7 20 208 l0 217 23 -3 c12 -2 22 2 22 7 0 6 -14 11 -31
11 -17 0 -28 -4 -24 -10 4 -6 -8 -10 -30 -10 -24 0 -34 4 -29 11 4 7 1 10 -7
7 -9 -3 -15 -23 -17 -56 -3 -51 -3 -51 -40 -55 l-37 -4 38 -1 c29 -2 37 -6 37
-21 0 -28 -64 -34 -88 -8 -12 15 -14 21 -4 24 18 7 4 23 -19 23 -16 0 -21 8
-19 36 1 3 -9 14 -22 24 l-23 19 25 2 c14 1 37 1 53 0 15 -1 27 3 27 9 0 11
-25 10 -142 -5 -23 -3 -38 -1 -38 5 0 5 -4 10 -10 10 -5 0 -10 -25 -10 -55 l0
-54 -62 -4 -63 -3 63 -2 62 -2 0 -44 c0 -43 -1 -45 -32 -49 l-33 -4 33 -1 c25
-2 32 -6 32 -22 0 -16 -7 -20 -37 -22 l-38 -1 35 -4 c19 -3 37 -9 41 -14 8
-14 -2 -70 -12 -63 -5 3 -13 -5 -18 -18 -11 -25 -11 -25 -16 16 -2 16 -9 32
-15 36 -10 6 -50 109 -50 130 0 5 24 10 53 11 38 1 46 3 27 8 -14 4 -39 4 -57
0 -27 -6 -33 -4 -40 15 -4 11 -6 27 -5 34 2 6 -2 12 -9 12 -7 0 -9 9 -5 26 4
15 3 23 -3 20 -8 -6 -23 17 -25 39 -1 6 -27 11 -58 13 -53 3 -56 2 -51 -19 8
-30 -10 -37 -83 -33 -38 2 -64 -1 -64 -7 0 -5 27 -9 65 -8 72 2 84 -3 65 -26
-10 -12 -29 -15 -78 -13 l-66 3 -2 45 -3 46 70 -4 c46 -3 69 -1 69 7 0 7 -27
11 -75 11 -43 0 -75 -4 -75 -10 0 -5 -14 -10 -31 -10 -20 0 -28 4 -23 12 4 7
3 8 -4 4 -7 -4 -12 -16 -12 -27 0 -10 -7 -19 -15 -19 -8 0 -15 -4 -15 -10 0
-5 7 -10 16 -10 9 0 14 -7 12 -17 -5 -27 -114 -29 -128 -3 -15 27 -14 27 40
22 29 -3 50 0 50 5 0 5 -25 9 -56 8 -44 -1 -59 3 -68 17 -8 13 -23 18 -53 18
-23 0 -44 4 -47 9 -8 12 -296 13 -296 1 0 -6 -7 -10 -15 -10 -8 0 -15 -4 -15
-9 0 -5 -13 -14 -29 -20 -15 -7 -34 -23 -41 -37 -9 -15 -23 -25 -39 -25 -24
-2 -24 -2 -3 -6 43 -9 16 -42 -37 -45 l-36 -1 33 -4 c24 -3 32 -9 32 -24 0
-18 -8 -19 -124 -19 -123 0 -149 7 -125 32 7 9 39 13 93 12 l81 -1 -78 4 c-53
3 -77 8 -75 15 2 6 11 15 19 18 8 4 24 12 36 18 13 7 33 11 45 11 19 -1 17 -3
-7 -9 -25 -6 -20 -8 27 -9 31 0 64 -4 73 -7 14 -6 16 -2 13 22 -3 27 0 29 37
34 42 5 38 16 -5 15 -14 0 -30 6 -36 14 -24 31 -154 55 -169 31 -4 -6 -13 -7
-23 -2 -27 13 -182 14 -182 1 0 -7 27 -10 85 -7 60 3 85 1 85 -7 0 -13 -50
-40 -65 -35 -23 6 -225 5 -225 -2 0 -5 52 -8 115 -8 63 0 115 -3 115 -6 0 -24
-33 -31 -135 -30 l-110 1 -2 43 c-1 35 2 42 18 42 10 0 19 5 19 10 0 6 -9 10
-19 10 -11 0 -23 -4 -26 -10 -3 -6 -39 -9 -78 -9 -54 1 -65 3 -42 9 21 5 -1 8
-70 10 -175 3 -1895 5 -2017 2z m3187 -62 c0 -51 -22 -65 -52 -34 -15 15 -16
18 -3 22 8 3 -2 10 -25 16 -22 7 -41 18 -43 26 -2 12 10 15 60 15 l63 0 0 -45z
m-2625 25 c0 -8 -4 -15 -10 -15 -5 0 -10 7 -10 15 0 8 5 15 10 15 6 0 10 -7
10 -15z m390 6 c0 -13 -38 -21 -102 -21 -45 0 -58 3 -58 15 0 12 16 15 80 15
44 0 80 -4 80 -9z m211 -4 c-1 -12 -15 -9 -19 4 -3 6 1 10 8 8 6 -3 11 -8 11
-12z m309 3 c0 -5 -7 -10 -15 -10 -8 0 -15 5 -15 10 0 6 7 10 15 10 8 0 15 -4
15 -10z m418 -2 c-6 -16 -198 -24 -198 -9 0 14 26 19 118 20 63 1 83 -2 80
-11z m102 -12 c0 -3 -4 -8 -10 -11 -5 -3 -10 -1 -10 4 0 6 5 11 10 11 6 0 10
-2 10 -4z m-1980 -40 c0 -22 -47 -26 -66 -5 -16 18 -15 19 24 19 29 0 42 -4
42 -14z m260 -7 c0 -5 -7 -9 -15 -9 -15 0 -20 12 -9 23 8 8 24 -1 24 -14z
m290 6 c0 -8 -4 -15 -10 -15 -5 0 -10 7 -10 15 0 8 5 15 10 15 6 0 10 -7 10
-15z m318 3 c-5 -15 -88 -24 -88 -10 0 16 13 22 53 22 26 0 37 -4 35 -12z
m732 -3 c0 -9 -9 -15 -25 -15 -24 0 -32 10 -18 23 12 13 43 7 43 -8z m260 0
c0 -12 -16 -15 -85 -15 -69 0 -85 3 -85 15 0 12 16 15 85 15 69 0 85 -3 85
-15z m110 -55 l0 -70 -31 0 c-23 0 -30 4 -27 17 2 9 14 20 28 23 l25 6 -25 7
c-25 7 -25 7 -5 25 12 10 19 26 17 40 -2 12 1 22 7 22 7 0 11 -27 11 -70z
m-510 50 c0 -5 -7 -10 -15 -10 -8 0 -15 5 -15 10 0 6 7 10 15 10 8 0 15 -4 15
-10z m1500 -21 c0 -5 7 -9 16 -9 8 0 12 5 8 11 -3 6 7 4 24 -5 53 -27 74 -76
63 -143 0 -5 -49 -8 -108 -7 l-108 0 103 -3 c94 -3 102 -5 102 -23 0 -19 -7
-20 -105 -20 -104 0 -106 0 -115 26 -24 62 -21 64 108 66 l117 2 -117 3 c-65
2 -118 6 -118 8 0 3 4 13 9 23 5 9 12 25 15 35 3 9 19 20 36 23 16 4 28 10 25
14 -3 4 7 8 20 8 14 0 25 -4 25 -9z m-545 -28 c-4 -15 -16 -21 -38 -22 -31 -2
-31 -2 -4 -6 20 -3 27 -9 25 -21 -3 -15 -17 -17 -98 -17 -81 0 -95 2 -98 17
-3 14 7 18 65 21 37 2 9 3 -64 2 -133 -2 -143 1 -143 36 0 7 345 19 358 12 2
-1 1 -11 -3 -22z m-2571 4 c23 -18 13 -23 -59 -28 -45 -3 -43 -4 16 -5 58 -2
89 -13 89 -33 0 -3 -38 -7 -85 -8 l-85 -2 0 46 0 45 53 0 c29 0 60 -7 71 -15z
m156 1 c0 -19 -25 -27 -39 -13 -18 18 -13 27 14 27 15 0 25 -6 25 -14z m318 7
c71 -12 25 -23 -98 -23 -119 0 -142 4 -123 23 7 8 175 8 221 0z m1142 -8 c0
-12 -14 -15 -65 -15 -103 0 -80 24 28 29 27 1 37 -3 37 -14z m154 0 c4 -12 -3
-15 -29 -15 -33 0 -43 8 -28 23 12 13 51 7 57 -8z m236 9 c0 -4 -8 -14 -17
-23 -10 -9 -18 -25 -18 -36 0 -17 -7 -20 -40 -20 -30 0 -41 4 -43 18 -3 14 4
17 32 17 20 0 36 4 36 8 0 4 -18 7 -40 5 -34 -2 -40 1 -40 18 0 17 7 19 65 19
36 0 65 -3 65 -6z m1330 -7 c0 -21 -12 -28 -27 -16 -19 16 -16 29 7 29 11 0
20 -6 20 -13z m268 -4 c-6 -32 -108 -21 -108 11 0 3 25 6 56 6 47 0 55 -3 52
-17z m218 0 c-2 -14 -16 -19 -62 -24 l-59 -6 53 -1 c45 -2 52 -5 52 -22 0 -19
-5 -21 -57 -18 l-58 3 2 40 c1 22 2 41 2 43 1 1 30 2 65 2 55 0 64 -2 62 -17z
m-3206 -3 c0 -5 -4 -10 -10 -10 -5 0 -10 5 -10 10 0 6 5 10 10 10 6 0 10 -4
10 -10z m363 3 c-7 -2 -19 -2 -25 0 -7 3 -2 5 12 5 14 0 19 -2 13 -5z m417 -3
c0 -13 -170 -13 -190 0 -10 6 20 9 88 9 59 0 102 -4 102 -9z m2536 -59 c-9
-13 -36 -15 -36 -2 0 6 5 13 10 16 6 4 7 12 4 18 -4 7 1 5 11 -5 9 -9 14 -21
11 -27z m-3776 8 c0 -11 -4 -17 -10 -14 -5 3 -10 13 -10 21 0 8 5 14 10 14 6
0 10 -9 10 -21z m348 4 c3 -10 -13 -13 -57 -13 -55 0 -80 12 -48 23 26 9 100
2 105 -10z m163 7 c21 0 39 -4 39 -10 0 -5 -25 -10 -55 -10 -44 0 -55 3 -55
16 0 11 5 14 16 10 9 -3 33 -6 55 -6z m736 -7 c4 -10 -34 -13 -166 -13 -103 0
-171 4 -171 10 0 9 103 15 259 15 51 0 76 -4 78 -12z m213 1 c0 -11 -15 -14
-65 -14 -58 0 -75 6 -60 22 3 2 32 5 65 6 46 1 60 -2 60 -14z m180 -4 c0 -17
-6 -20 -45 -20 -31 0 -45 4 -45 13 0 20 5 23 50 25 34 2 40 0 40 -18z m1540 0
c0 -11 -4 -20 -10 -20 -5 0 -10 9 -10 20 0 11 5 20 10 20 6 0 10 -9 10 -20z
m266 -22 c1 -50 -10 -67 -26 -38 -9 17 -9 24 0 30 8 5 3 10 -14 14 -39 10 -34
38 6 34 30 -3 32 -6 34 -40z m804 21 c0 -16 -5 -20 -27 -17 -17 2 -29 10 -31
21 -3 13 3 17 27 17 25 0 31 -4 31 -21z m-3430 1 c0 -5 -9 -10 -20 -10 -11 0
-20 5 -20 10 0 6 9 10 20 10 11 0 20 -4 20 -10z m2470 -6 c0 -9 -5 -14 -12
-12 -18 6 -21 28 -4 28 9 0 16 -7 16 -16z m808 -3 c3 -8 -1 -12 -9 -9 -7 2
-15 10 -17 17 -3 8 1 12 9 9 7 -2 15 -10 17 -17z m-4213 -41 c0 -12 -17 -16
-75 -20 l-75 -6 70 -4 c54 -4 70 -9 70 -20 0 -11 -16 -17 -60 -21 -33 -3 -50
-6 -38 -7 44 -4 34 -22 -11 -22 l-46 0 0 60 0 61 83 -3 c65 -2 82 -6 82 -18z
m115 0 c0 -11 -4 -20 -10 -20 -5 0 -10 9 -10 20 0 11 5 20 10 20 6 0 10 -9 10
-20z m550 -4 c0 -14 -5 -17 -22 -12 -13 3 -38 6 -55 6 -18 0 -33 4 -33 9 0 6
15 11 33 13 65 6 77 4 77 -16z m270 4 c0 -12 -29 -20 -35 -10 -9 15 4 30 20
23 8 -3 15 -9 15 -13z m420 3 c0 -8 -15 -13 -42 -14 -174 -2 -280 0 -286 6
-15 15 26 20 172 20 118 0 156 -3 156 -12z m220 -4 c0 -18 -6 -19 -62 -14 -34
3 -63 7 -66 9 -12 13 13 21 67 22 54 2 61 0 61 -17z m190 17 c0 -2 3 -11 6
-20 5 -13 -3 -16 -50 -16 -49 0 -56 2 -56 20 0 17 7 20 50 20 28 0 50 -2 50
-4z m160 -5 c0 -19 -31 -35 -48 -25 -30 20 -25 34 12 34 20 0 36 -4 36 -9z
m165 -11 c0 -16 -54 -26 -82 -16 -13 5 -13 9 -2 22 16 20 84 15 84 -6z m423 3
c-3 -15 -17 -18 -92 -21 -49 -2 -93 1 -99 7 -22 22 7 31 99 31 86 0 95 -2 92
-17z m342 -3 c0 -19 -7 -20 -122 -22 l-123 -2 119 -3 c82 -3 122 -8 132 -17 7
-8 10 -16 7 -20 -4 -3 -61 -6 -128 -6 l-122 0 -7 31 c-12 61 -17 59 119 59
118 0 125 -1 125 -20z m440 0 c0 -11 -4 -20 -10 -20 -5 0 -10 9 -10 20 0 11 5
20 10 20 6 0 10 -9 10 -20z m128 8 c19 -19 14 -28 -13 -28 -18 0 -25 5 -25 20
0 22 20 26 38 8z m330 -5 c-2 -13 -15 -19 -47 -21 -24 -2 -48 1 -53 6 -19 19
3 32 53 32 43 0 50 -3 47 -17z m154 -8 c5 -22 2 -24 -23 -21 -16 1 -32 6 -35
9 -13 13 6 37 30 37 17 0 25 -7 28 -25z m338 -13 c36 -53 36 -52 -9 -52 -45 0
-53 13 -20 31 l21 11 -21 15 c-12 8 -19 19 -16 24 10 16 19 10 45 -29z m120
11 c0 -25 0 -26 -20 -8 -11 10 -20 22 -20 27 0 4 9 8 20 8 15 0 20 -7 20 -27z
m-3900 7 c0 -5 -18 -11 -40 -11 -22 -1 -47 -2 -57 -3 -9 0 -18 5 -20 12 -4 9
12 12 56 12 34 0 61 -4 61 -10z m-354 -67 c-3 -3 -13 -3 -22 1 -16 6 -15 8 2
21 16 12 19 12 22 -1 2 -9 1 -18 -2 -21z m351 14 c-6 -17 -257 -17 -257 0 0
14 83 20 193 15 46 -3 67 -7 64 -15z m1430 1 c-3 -8 -6 -5 -6 6 -1 11 2 17 5
13 3 -3 4 -12 1 -19z m198 2 c0 -11 -12 -15 -48 -16 -48 -1 -64 7 -52 27 11
16 100 7 100 -11z m425 5 c7 -9 10 -18 7 -22 -7 -6 -339 -5 -345 2 -3 2 -2 11
1 20 9 22 318 23 337 0z m780 1 c0 -15 -18 -31 -26 -23 -7 7 7 37 17 37 5 0 9
-6 9 -14z m162 0 c23 -17 13 -26 -33 -26 -34 0 -57 19 -42 34 11 11 57 6 75
-8z m281 8 c3 -3 2 -14 -3 -23 -10 -18 -35 -77 -44 -104 -8 -24 -25 -21 -30 6
-9 41 -14 116 -8 122 7 7 77 6 85 -1z m-3073 -16 c0 -9 -18 -13 -55 -13 -37 0
-55 4 -55 13 0 8 18 12 55 12 37 0 55 -4 55 -12z m277 -5 c3 -8 -22 -11 -88
-10 -65 2 -94 6 -97 15 -3 10 17 12 89 10 59 -2 94 -7 96 -15z m415 2 c-4 -16
-315 -12 -320 3 -3 10 34 12 160 10 102 -2 162 -7 160 -13z m218 -1 c0 -13
-11 -15 -62 -12 -38 2 -63 8 -66 16 -3 9 14 12 62 12 54 0 66 -3 66 -16z m510
-44 c0 -19 -5 -21 -59 -19 -48 2 -58 5 -54 18 3 12 19 17 59 19 49 2 54 0 54
-18z m315 10 c-46 -12 -227 -12 -220 0 4 6 56 10 128 9 78 -1 111 -4 92 -9z
m-2285 -15 c0 -10 -10 -15 -30 -15 -29 0 -38 9 -23 23 13 13 53 7 53 -8z m350
0 c0 -11 -13 -15 -53 -15 -29 0 -57 4 -62 9 -6 6 -41 12 -80 14 -41 2 -15 4
63 5 111 2 132 0 132 -13z m200 3 c0 -9 -19 -14 -55 -15 -43 -2 -55 1 -55 12
0 11 13 15 55 15 37 0 55 -4 55 -12z m300 2 c8 -5 13 -10 10 -11 -41 -7 -66
-6 -75 1 -5 4 -38 8 -73 8 -34 0 -66 2 -69 6 -10 10 191 7 207 -4z m221 -5
c-41 -18 -59 -18 -91 0 -23 13 -20 14 50 14 74 0 75 0 41 -14z m172 0 c-4 -15
-96 -12 -101 3 -3 10 9 12 49 10 30 -2 53 -7 52 -13z m217 0 c0 -13 -11 -15
-62 -13 -38 2 -63 8 -66 16 -3 9 14 12 62 12 53 0 66 -3 66 -15z m2337 -36 c2
-19 -17 -49 -30 -49 -3 0 0 16 6 35 12 40 22 45 24 14z m-1827 -9 c0 -11 -5
-20 -11 -20 -6 0 -9 7 -5 15 6 17 4 18 -18 9 -8 -3 -12 -12 -9 -20 9 -25 -12
-15 -24 11 -11 24 -10 25 28 25 32 0 39 -3 39 -20z m-1970 -5 c0 -12 -13 -15
-55 -15 -30 0 -55 4 -55 9 0 14 19 19 68 20 31 1 42 -3 42 -14z m350 0 c0 -13
-11 -15 -57 -13 -81 4 -85 28 -4 28 48 0 61 -3 61 -15z m200 5 c0 -5 -1 -10
-2 -10 -2 -1 -27 -3 -55 -6 -44 -5 -53 -3 -53 10 0 13 11 16 55 16 30 0 55 -4
55 -10z m348 1 c1 -1 2 -5 2 -11 0 -6 -27 -10 -60 -10 -47 0 -60 3 -60 15 0
12 11 14 58 11 31 -2 58 -5 60 -5z m345 -6 c-2 -5 -25 -11 -53 -13 -40 -2 -50
0 -50 13 0 13 10 15 53 13 28 -2 51 -7 50 -13z m464 -17 c-3 -8 -6 -5 -6 6 -1
11 2 17 5 13 3 -3 4 -12 1 -19z m2259 -5 c-10 -10 -19 5 -10 18 6 11 8 11 12
0 2 -7 1 -15 -2 -18z m-2020 -32 c-4 -6 -14 -7 -23 -4 -15 6 -14 7 3 13 22 9
29 6 20 -9z"/>
<path d="M3288 303 c29 -2 74 -2 100 0 26 2 2 3 -53 3 -55 0 -76 -1 -47 -3z"/>
<path d="M3941 149 c18 -11 39 -11 39 0 0 5 -12 9 -26 9 -18 0 -22 -3 -13 -9z"/>
<path d="M3936 87 c3 -10 9 -15 12 -12 3 3 0 11 -7 18 -10 9 -11 8 -5 -6z"/>
<path d="M2513 463 c9 -2 25 -2 35 0 9 3 1 5 -18 5 -19 0 -27 -2 -17 -5z"/>
<path d="M2630 460 c0 -6 17 -9 39 -8 21 2 37 6 34 11 -7 11 -73 8 -73 -3z"/>
<path d="M3048 463 c7 -3 16 -2 19 1 4 3 -2 6 -13 5 -11 0 -14 -3 -6 -6z"/>
<path d="M3080 458 c0 -10 129 -9 155 2 13 5 -12 8 -67 7 -49 0 -88 -4 -88 -9z"/>
<path d="M3618 463 c6 -2 18 -2 25 0 6 3 1 5 -13 5 -14 0 -19 -2 -12 -5z"/>
<path d="M3666 458 c3 -4 19 -8 35 -8 17 0 28 4 24 9 -3 5 -19 9 -35 9 -16 -1
-27 -5 -24 -10z"/>
<path d="M3745 460 c3 -5 8 -10 11 -10 2 0 4 5 4 10 0 6 -5 10 -11 10 -5 0 -7
-4 -4 -10z"/>
<path d="M3780 460 c-12 -8 -11 -10 8 -10 12 0 22 5 22 10 0 13 -11 13 -30 0z"/>
<path d="M4200 460 c0 -5 7 -10 15 -10 8 0 15 5 15 10 0 6 -7 10 -15 10 -8 0
-15 -4 -15 -10z"/>
<path d="M4240 461 c0 -5 25 -9 55 -10 30 0 55 3 55 8 0 4 -25 9 -55 10 -30 1
-55 -3 -55 -8z"/>
<path d="M4570 460 c0 -5 9 -9 20 -7 31 5 36 17 7 17 -15 0 -27 -4 -27 -10z"/>
<path d="M4780 460 c0 -13 370 -13 390 0 10 6 -58 10 -187 10 -129 0 -203 -4
-203 -10z"/>
<path d="M5254 462 c6 -9 324 -7 333 2 4 3 -71 6 -166 6 -95 0 -170 -4 -167
-8z"/>
<path d="M4540 408 c0 -5 18 -8 40 -8 22 0 40 3 40 8 0 4 -18 7 -40 7 -22 0
-40 -3 -40 -7z"/>
<path d="M4740 408 c0 -5 321 -7 713 -6 391 1 660 4 597 5 -283 7 -1310 7
-1310 1z"/>
<path d="M4258 403 c17 -2 47 -2 65 0 17 2 3 4 -33 4 -36 0 -50 -2 -32 -4z"/>
<path d="M6188 403 c7 -3 16 -2 19 1 4 3 -2 6 -13 5 -11 0 -14 -3 -6 -6z"/>
<path d="M5113 353 c208 -2 546 -2 750 0 205 1 35 2 -378 2 -412 0 -580 -1
-372 -2z"/>
<path d="M5082 303 c192 -2 504 -2 695 0 192 1 35 2 -347 2 -382 0 -539 -1
-348 -2z"/>
<path d="M6163 303 c15 -2 37 -2 50 0 12 2 0 4 -28 4 -27 0 -38 -2 -22 -4z"/>
<path d="M5113 253 c208 -2 546 -2 750 0 205 1 35 2 -378 2 -412 0 -580 -1
-372 -2z"/>
<path d="M5102 203 c201 -2 534 -2 740 0 205 1 40 2 -367 2 -407 0 -575 -1
-373 -2z"/>
<path d="M4328 153 c7 -3 16 -2 19 1 4 3 -2 6 -13 5 -11 0 -14 -3 -6 -6z"/>
<path d="M5098 153 c199 -2 525 -2 725 0 199 1 36 2 -363 2 -399 0 -562 -1
-362 -2z"/>
<path d="M6215 150 c3 -5 8 -10 11 -10 2 0 4 5 4 10 0 6 -5 10 -11 10 -5 0 -7
-4 -4 -10z"/>
<path d="M4822 105 c2 -3 272 -5 599 -6 327 0 603 -2 615 -5 16 -4 20 -11 16
-30 -4 -20 0 -24 22 -24 30 0 32 5 10 27 -8 9 -13 22 -10 29 4 11 -100 14
-626 14 -347 0 -629 -2 -626 -5z"/>
<path d="M6113 103 c9 -2 23 -2 30 0 6 3 -1 5 -18 5 -16 0 -22 -2 -12 -5z"/>
<path d="M6180 100 c0 -5 11 -10 25 -10 14 0 25 5 25 10 0 6 -11 10 -25 10
-14 0 -25 -4 -25 -10z"/>
<path d="M5770 61 c-8 -6 -11 -13 -7 -17 4 -4 0 -16 -10 -26 -15 -17 -14 -18
32 -18 43 0 47 1 30 13 -31 23 -9 37 50 32 30 -3 55 -1 55 4 0 5 -21 9 -47 9
-27 0 -57 3 -68 6 -11 4 -27 2 -35 -3z"/>
<path d="M6175 63 c-52 -7 -63 -15 -30 -23 59 -15 85 -12 85 10 0 11 -6 19
-12 19 -7 -1 -26 -4 -43 -6z"/>
<path d="M1740 44 c0 -8 5 -12 10 -9 6 3 10 10 10 16 0 5 -4 9 -10 9 -5 0 -10
-7 -10 -16z"/>
<path d="M5288 53 c18 -2 45 -2 60 0 15 2 0 4 -33 4 -33 0 -45 -2 -27 -4z"/>
<path d="M5388 54 c-9 -9 3 -44 16 -44 6 0 12 11 12 25 2 23 -14 33 -28 19z"/>
<path d="M5435 55 c6 -2 22 -6 38 -9 28 -7 37 -30 15 -39 -7 -3 2 -6 21 -6 27
-1 31 2 22 13 -6 7 -9 21 -5 30 5 14 -2 16 -47 15 -30 0 -49 -2 -44 -4z"/>
<path d="M5541 55 c8 -7 139 -9 146 -1 3 3 -29 6 -72 6 -43 0 -76 -2 -74 -5z"/>
<path d="M4886 15 c-4 -10 1 -15 14 -15 13 0 18 5 14 15 -4 8 -10 15 -14 15
-4 0 -10 -7 -14 -15z"/>
<path d="M4795 10 c-3 -5 3 -10 15 -10 12 0 18 5 15 10 -3 6 -10 10 -15 10 -5
0 -12 -4 -15 -10z"/>
<path d="M5845 10 c-4 -6 11 -10 37 -9 36 1 39 2 18 9 -36 11 -48 11 -55 0z"/>
<path d="M6095 10 l-80 -6 108 -2 c66 -1 107 2 107 8 0 10 -4 10 -135 0z"/>
<path d="M5978 3 c7 -3 16 -2 19 1 4 3 -2 6 -13 5 -11 0 -14 -3 -6 -6z"/>
</g>
</svg>
